<?xml version="1.0" encoding="UTF-8" standalone="no"?>
<svg width="80px" height="80px" viewBox="0 0 80 80" version="1.1" xmlns="http://www.w3.org/2000/svg" xmlns:xlink="http://www.w3.org/1999/xlink">
    <!-- Generator: Sketch 50.2 (55047) - http://www.bohemiancoding.com/sketch -->
    <title>Icons/Programming Languages/icon-java</title>
    <desc>Created with Sketch.</desc>
    <defs></defs>
    <g id="Icons/Programming-Languages/icon-java" stroke="none" stroke-width="1" fill="none" fill-rule="evenodd">
        <rect id="Rectangle" fill="#D8D8D8" opacity="0" x="0" y="0" width="80" height="80"></rect>
        <path d="M29.4393651,61.6634921 C17.2539683,65.0679365 36.8533333,72.1009524 52.3695238,65.4533333 C49.8279365,64.4653968 48.0050794,63.3257143 48.0050794,63.3257143 C41.0863492,64.6336508 37.8768254,64.7365079 31.5961905,64.0190476 C26.4126984,63.4253968 29.4393651,61.6634921 29.4393651,61.6634921 Z M50.511746,55.0222222 C41.3409524,56.7866667 36.0438095,56.7301587 29.3346032,56.0380952 C24.1466667,55.5015873 27.5428571,52.9873016 27.5428571,52.9873016 C14.1225397,57.4419048 35.0139683,62.4965079 53.7707937,57.0101587 C51.7771429,56.3079365 50.511746,55.0222222 50.511746,55.0222222 Z M57.6984127,16.5619048 C57.6990476,16.5619048 30.567619,23.335873 43.5250794,38.2679365 C47.3498413,42.6711111 42.5219048,46.6298413 42.5219048,46.6298413 C42.5219048,46.6298413 52.2292063,41.6196825 47.7720635,35.3428571 C43.607619,29.4920635 40.4152381,26.5853968 57.6984127,16.5619048 Z M64.0463492,68.0819048 C64.0463492,68.0819048 66.2869841,69.9295238 61.5777778,71.3574603 C52.624127,74.0698413 24.304127,74.887619 16.4380952,71.4660317 C13.6126984,70.2355556 18.9136508,68.5295238 20.5815873,68.1695238 C22.3206349,67.7930159 23.3136508,67.8615873 23.3136508,67.8615873 C20.1695238,65.647619 2.98793651,72.2107937 14.5885714,74.0933333 C46.2209524,79.2209524 72.2501587,71.784127 64.0463492,68.0819048 Z M53.1746032,48.8228571 C54.6952381,47.7853968 56.7955556,46.8844444 56.7955556,46.8844444 C56.7955556,46.8844444 50.8120635,47.9542857 44.8507937,48.4552381 C37.5530159,49.0673016 29.7250794,49.1879365 25.7955556,48.6622222 C16.4926984,47.4184127 30.895873,43.9968254 30.895873,43.9968254 C30.895873,43.9968254 25.3009524,43.6184127 18.4234921,46.9453968 C10.2888889,50.8787302 38.5447619,52.671746 53.1746032,48.8228571 Z M56.735873,58.4387302 C56.6673016,58.6228571 56.4387302,58.8298413 56.4387302,58.8298413 C76.2946032,53.6101587 68.9942857,40.4304762 59.5003175,43.7663492 C58.6673016,44.0609524 58.2304762,44.7460317 58.2304762,44.7460317 C58.2304762,44.7460317 58.7568254,44.5339683 59.9307937,44.2888889 C64.7301587,43.2888889 71.6063492,50.7136508 56.735873,58.4387302 Z M39.9561905,43.8533333 C37.0266667,37.231746 27.0926984,31.4387302 39.9606349,21.2761905 C56.0057143,8.61142857 47.7726984,0.372698413 47.7726984,0.372698413 C51.0933333,13.4571429 36.0577778,17.4095238 30.6304762,25.5580952 C26.9346032,31.1104762 32.4444444,37.0768254 39.9561905,43.8533333 Z M57.2730159,76.7092063 C45.0907937,79.0025397 30.064127,78.7352381 21.1542857,77.264127 C21.1542857,77.264127 22.9790476,78.7752381 32.3580952,79.3790476 C46.6285714,80.2914286 68.5485714,78.8711111 69.066667,72.1180952 C69.0673016,72.1180952 68.0698413,74.6780952 57.2730159,76.7092063 Z" id="Shape" fill="#52636C" fill-rule="nonzero"></path>
    </g>
</svg>