<?xml version="1.0" encoding="UTF-8" standalone="no"?>
<svg width="80px" height="80px" viewBox="0 0 80 80" version="1.1" xmlns="http://www.w3.org/2000/svg" xmlns:xlink="http://www.w3.org/1999/xlink">
    <!-- Generator: Sketch 50.2 (55047) - http://www.bohemiancoding.com/sketch -->
    <title>Icons/Programming Languages/icon-react</title>
    <desc>Created with Sketch.</desc>
    <defs></defs>
    <g id="Icons/Programming-Languages/icon-react" stroke="none" stroke-width="1" fill="none" fill-rule="evenodd">
        <rect id="Rectangle" fill="#D8D8D8" opacity="0" x="0" y="0" width="80" height="80"></rect>
        <path d="M66.3473639,48.2652021 C65.0621216,48.7549094 63.6964319,49.2031162 62.2643412,49.6104607 C61.2593876,46.3951202 59.9632913,43.0559163 58.4079757,39.6796811 C59.9613759,36.3072767 61.2568338,32.9712651 62.2611488,29.759117 C71.065027,32.2695854 76.3592294,36.0965812 76.3592294,39.6796811 C76.3592294,42.7124188 72.7097285,45.8415658 66.3473639,48.2652021 Z M60.6075086,58.2068358 C61.6897172,64.9286596 60.8041577,69.6539843 58.1781261,71.1697147 C57.5415704,71.5374741 56.7830667,71.7239076 55.9236846,71.7239076 C52.0813654,71.7239076 47.283255,68.5679449 42.5419686,63.8943364 C44.7983255,61.4477151 47.0380821,58.6697273 49.1961145,55.6242201 C52.8998854,55.2832765 56.4421231,54.7361068 59.7308878,53.9980342 C60.0948163,55.4422558 60.3891515,56.8488077 60.6075086,58.2068358 Z M21.8171963,71.1697147 C19.1905262,69.6539843 18.3049667,64.9286596 19.3871753,58.2068358 C19.6055324,56.8488077 19.900506,55.4422558 20.2637961,53.9980342 C23.5525608,54.7361068 27.0947985,55.2832765 30.7985694,55.6242201 C32.9566018,58.6697273 35.1963584,61.4477151 37.4527153,63.8943364 C32.7114289,68.5679449 27.9133185,71.7239076 24.0716378,71.7239076 C23.2001247,71.7239076 22.4626906,71.5425818 21.8171963,71.1697147 Z M3.63609297,39.6796811 C3.63609297,36.6475818 7.28495537,33.5184349 13.6479585,31.09416 C14.9332008,30.6044527 16.298252,30.156246 17.7309812,29.7489014 C18.7352963,32.9642419 20.0320311,36.3040843 21.5873467,39.6796811 C20.033308,43.0527239 18.7378502,46.3887355 17.7341736,49.6008837 C8.92965695,47.0897768 3.63609297,43.2634194 3.63609297,39.6796811 Z M19.3871753,21.1531649 C18.3049667,14.431341 19.1905262,9.70601631 21.8171963,8.18964743 C22.4531135,7.82252654 23.2116172,7.63609297 24.0716378,7.63609297 C27.9133185,7.63609297 32.7114289,10.7920557 37.4527153,15.4656642 C35.1963584,17.9122855 32.9566018,20.6896348 30.7992079,23.735142 C27.095437,24.0767241 23.5525608,24.6238938 20.2637961,25.3619664 C19.900506,23.9177448 19.6055324,22.5111929 19.3871753,21.1531649 Z M54.167889,31.4983123 C53.4138546,30.1926388 52.6381122,28.9220813 51.8483235,27.6828089 C54.2911139,27.9931059 56.5902484,28.3947042 58.7304036,28.8710036 C58.0580935,31.0015817 57.2478737,33.1921761 56.3137904,35.415971 C55.6325417,34.1077437 54.9193695,32.8007933 54.167889,31.4983123 Z M39.9976612,18.122981 C41.4993452,19.7785366 42.9761289,21.5592325 44.3960887,23.4139911 C42.9448438,23.3520594 41.4782757,23.3169434 39.9976612,23.3169434 C38.5170467,23.3169434 37.0504785,23.3520594 35.5985952,23.4139911 C37.018555,21.5592325 38.4953387,19.7785366 39.9976612,18.122981 Z M23.6808935,35.415971 C22.7455333,33.1896222 21.934675,30.9958355 21.2617265,28.8627035 C23.4459361,28.3793809 25.7514553,27.9848057 28.1476374,27.681532 C27.3572101,28.9208044 26.5814677,30.1920004 25.8274334,31.4983123 C25.0753144,32.8007933 24.3621422,34.1077437 23.6808935,35.415971 Z M28.1463604,51.6771917 C25.70357,51.3662563 23.4044355,50.9646579 21.2642803,50.488997 C21.9372289,48.3584189 22.7468103,46.1678245 23.6808935,43.9440296 C24.3621422,45.2516185 25.0753144,46.5592073 25.8267949,47.8610499 C26.5808293,49.1673618 27.3565717,50.4379193 28.1463604,51.6771917 Z M39.9976612,61.2370196 C38.4953387,59.5808256 37.018555,57.8001297 35.5985952,55.9453711 C37.0504785,56.0073028 38.5170467,56.0424187 39.9976612,56.0424187 C41.4782757,56.0424187 42.9448438,56.0073028 44.3960887,55.9453711 C42.9761289,57.8001297 41.4993452,59.5808256 39.9976612,61.2370196 Z M56.3137904,43.9440296 C57.2491506,46.1703784 58.0600089,48.3641651 58.7329575,50.4966586 C56.5493863,50.9806197 54.2438671,51.3751949 51.847685,51.6784686 C52.6374738,50.4385578 53.4132162,49.1680002 54.167889,47.8610499 C54.9193695,46.5592073 55.6325417,45.2516185 56.3137904,43.9440296 Z M51.0189495,46.0433226 C49.8441627,48.0774916 48.5423201,50.1320916 47.1549223,52.1471064 C44.8225874,52.3175782 42.4289592,52.4063257 39.9976612,52.4063257 C37.5184779,52.4063257 35.1305959,52.3131089 32.8384846,52.145191 C31.4517254,50.1308147 30.1498828,48.0768531 28.9757344,46.0433226 C27.7537007,43.925514 26.6274377,41.7968513 25.6046069,39.6803195 C26.6280761,37.5631493 27.7537007,35.4338482 28.9763729,33.316678 C30.1505213,31.282509 31.4523638,29.227909 32.8397616,27.2128942 C35.172735,27.0424224 37.5657247,26.9536749 39.9976612,26.9536749 C42.4768445,26.9536749 44.8647265,27.0468917 47.1568378,27.2148096 C48.543597,29.2291859 49.8448011,31.2831475 51.0189495,33.316678 C52.2416217,35.4338482 53.3672462,37.5631493 54.390077,39.6796811 C53.3672462,41.7968513 52.2416217,43.925514 51.0189495,46.0433226 Z M58.1781261,8.18964743 C60.8041577,9.70601631 61.6897172,14.431341 60.6075086,21.1531649 C60.3891515,22.5111929 60.0948163,23.9177448 59.7308878,25.3619664 C56.4421231,24.6238938 52.8998854,24.0767241 49.1961145,23.735142 C47.0380821,20.6896348 44.7983255,17.9122855 42.5419686,15.4656642 C47.283255,10.7920557 52.0813654,7.63609297 55.9236846,7.63609297 C56.7951976,7.63609297 57.5326318,7.81741877 58.1781261,8.18964743 Z M67.6415449,27.6962168 C66.2598934,27.1701166 64.7939637,26.6880709 63.2565253,26.2513567 C63.6472696,24.7017873 63.9626743,23.1911646 64.1976317,21.7309812 C65.5524674,13.314655 64.0603604,7.38708924 59.9964918,5.04070791 C58.7999969,4.35052064 57.4298379,4 55.9236846,4 C51.4109708,4 45.7349626,7.28940316 39.9976612,12.8530404 C34.2597213,7.28940316 28.5843516,4 24.0716378,4 C22.5654845,4 21.1953255,4.35052064 19.9988306,5.04070791 C15.9343235,7.38708924 14.4422165,13.314655 15.7976907,21.7309812 C16.0326481,23.1911646 16.3480528,24.7017873 16.7387971,26.2513567 C15.2013587,26.6880709 13.735429,27.1701166 12.353139,27.6962168 C4.386935,30.73087 0,34.9869184 0,39.6796811 C0,44.3730822 4.386935,48.6284922 12.353139,51.6631453 C13.735429,52.189884 15.2013587,52.6719297 16.7387971,53.1086439 C16.3480528,54.6582133 16.0326481,56.168836 15.7976907,57.6290194 C14.4422165,66.0453456 15.9343235,71.9722729 19.9988306,74.3186542 C21.1953255,75.00948 22.5654845,75.3600006 24.0716378,75.3600006 C28.5843516,75.3600006 34.2597213,72.0705974 39.9976612,66.5069602 C45.7349626,72.0705974 51.4109708,75.3600006 55.9236846,75.3600006 C57.4298379,75.3600006 58.7999969,75.00948 59.9964918,74.3186542 C64.0603604,71.9722729 65.5524674,66.0453456 64.1976317,57.6290194 C63.9626743,56.168836 63.6472696,54.6582133 63.2565253,53.1086439 C64.7939637,52.6719297 66.2598934,52.189884 67.6415449,51.6631453 C75.6077489,48.6284922 79.9953224,44.3730822 79.9953224,39.6796811 C79.9953224,34.9869184 75.6077489,30.73087 67.6415449,27.6962168 Z M39.9976612,32.4074951 C35.9810394,32.4074951 32.7254752,35.6636978 32.7254752,39.6796811 C32.7254752,43.6963028 35.9810394,46.9525055 39.9976612,46.9525055 C44.0136445,46.9525055 47.2698471,43.6963028 47.2698471,39.6796811 C47.2698471,35.6636978 44.0136445,32.4074951 39.9976612,32.4074951" id="Fill-2" fill="#52636C"></path>
    </g>
</svg>