<?xml version="1.0" encoding="UTF-8" standalone="no"?>
<svg width="80px" height="80px" viewBox="0 0 80 80" version="1.1" xmlns="http://www.w3.org/2000/svg" xmlns:xlink="http://www.w3.org/1999/xlink">
    <!-- Generator: Sketch 50.2 (55047) - http://www.bohemiancoding.com/sketch -->
    <title>Icons/Programming Languages/icon-javascript</title>
    <desc>Created with Sketch.</desc>
    <defs>
        <path d="M0,0 L0,80 L80,80 L80,0 L0,0 Z M42.31616,68.16832 C41.13536,70.56768 38.88128,72.144 36.26944,72.90496 C32.256,73.82656 28.41728,73.30112 25.5616,71.5872 C23.65056,70.41472 22.15808,68.60992 21.14496,66.53056 L27.23776,62.79936 C27.29088,62.82176 27.45088,63.11104 27.66464,63.4848 C28.4416,64.78656 29.11168,65.70816 30.4288,66.3552 C31.72288,66.7968 34.56384,67.07904 35.6608,64.80192 C36.33088,63.64352 36.11776,59.92 36.11776,55.80032 C36.11712,49.32672 36.1472,42.88 36.1472,36.48 L43.64096,36.48 C43.64096,43.52 43.67936,50.18752 43.64096,57.05728 C43.65696,61.26848 44.0224,65.02272 42.31616,68.16832 Z M73.40352,66.0512 C70.79872,74.96128 56.27584,75.25056 50.47232,69.36384 C49.24608,67.97824 48.47744,67.2544 47.74592,65.65504 C50.83008,63.88096 50.83008,63.88096 53.83104,62.14464 C55.46112,64.65024 56.96832,66.02816 59.68,66.592 C63.35872,67.04128 67.05984,65.77728 66.22976,61.87008 C65.37664,58.67904 58.69696,57.90272 54.15104,54.49024 C49.536,51.39072 48.4544,43.8592 52.24704,39.55584 C53.51104,37.96416 55.66656,36.77632 57.92832,36.20544 L60.28864,35.90016 C64.82048,35.80864 67.65312,37.00544 69.73248,39.32736 C70.31104,39.9136 70.78336,40.54592 71.66656,41.91616 C69.25248,43.45472 69.26016,43.44 65.80224,45.67872 C65.06368,44.08768 63.83808,43.08928 62.54272,42.65536 C60.53184,42.04608 57.99616,42.70848 57.47008,44.83328 C57.28768,45.488 57.32544,46.09728 57.61536,47.17888 C58.43008,49.0368 61.16416,49.84448 63.61664,50.97152 C70.67648,53.83488 73.06048,56.90496 73.64672,60.55936 C74.2112,63.7056 73.5104,65.74656 73.40352,66.0512 Z" id="path-1"></path>
    </defs>
    <g id="Icons/Programming-Languages/icon-javascript" stroke="none" stroke-width="1" fill="none" fill-rule="evenodd">
        <rect id="Rectangle" fill="#D8D8D8" opacity="0" x="0" y="0" width="80" height="80"></rect>
        <mask id="mask-2" fill="white">
            <use xlink:href="#path-1"></use>
        </mask>
        <use id="Mask" fill="#52636C" fill-rule="nonzero" xlink:href="#path-1"></use>
    </g>
</svg>