<?xml version="1.0" encoding="UTF-8" standalone="no"?>
<svg width="80px" height="80px" viewBox="0 0 80 80" version="1.1" xmlns="http://www.w3.org/2000/svg" xmlns:xlink="http://www.w3.org/1999/xlink">
    <!-- Generator: Sketch 50.2 (55047) - http://www.bohemiancoding.com/sketch -->
    <title>Icons/Programming Languages/icon-git</title>
    <desc>Created with Sketch.</desc>
    <defs></defs>
    <g id="Icons/Programming-Languages/icon-git" stroke="none" stroke-width="1" fill="none" fill-rule="evenodd">
        <rect id="Rectangle" fill="#D8D8D8" opacity="0" x="0" y="0" width="80" height="80"></rect>
        <path d="M77.9593694,36.48625 L43.5131934,2.04 C41.5308055,0.05625 38.3134876,0.05625 36.3279749,2.04 L29.1765045,9.19375 L38.2497412,18.2675 C40.3589968,17.555625 42.7763601,18.033125 44.45689,19.71375 C46.1461694,21.405 46.6205176,23.843125 45.8899339,25.959375 L54.6344391,34.705625 C56.7499445,33.97625 59.1916813,34.4475 60.8803358,36.14 C63.2427021,38.500625 63.2427021,42.3275 60.8803358,44.689375 C58.5179694,47.051875 54.6925609,47.051875 52.3289446,44.689375 C50.5527951,42.911875 50.1134449,40.3025 51.013394,38.11375 L42.8588554,29.958125 L42.8576055,51.42125 C43.4338229,51.705625 43.9769171,52.085625 44.45689,52.56375 C46.8186314,54.924375 46.8186314,58.75 44.45689,61.115625 C42.0951486,63.47625 38.2672402,63.47625 35.9079987,61.115625 C33.5468823,58.750625 33.3531432,54.925 35.7136347,52.56375 C36.2973516,51.980625 36.8729441,51.54 37.4979087,51.245 L37.4979087,29.583125 C36.8729441,29.288125 36.2979766,28.850625 35.7130097,28.26375 C33.9249859,26.47625 33.5906298,23.85125 34.5080779,21.65375 L25.6129562,12.708125 L2.01804115,36.326875 C0.0337784199,38.3125 0.0462777127,41.53 2.03054044,43.514375 L36.4823412,77.960625 C38.465354,79.944375 41.6851718,79.944375 43.6713094,77.960625 L77.9568696,43.674375 C79.9411323,41.689375 79.9430072,38.47 77.9593694,36.48625 Z" id="Shape" fill="#52636C" fill-rule="nonzero"></path>
    </g>
</svg>