<?xml version="1.0" encoding="UTF-8" standalone="no"?>
<svg width="80px" height="80px" viewBox="0 0 80 80" version="1.1" xmlns="http://www.w3.org/2000/svg" xmlns:xlink="http://www.w3.org/1999/xlink">
    <!-- Generator: Sketch 50.2 (55047) - http://www.bohemiancoding.com/sketch -->
    <title>Icons/Programming Languages/icon-nodejs</title>
    <desc>Created with Sketch.</desc>
    <defs></defs>
    <g id="Icons/Programming-Languages/icon-nodejs" stroke="none" stroke-width="1" fill="none" fill-rule="evenodd">
        <rect id="Rectangle" fill="#D8D8D8" opacity="0" x="0" y="0" width="80" height="80"></rect>
        <path d="M72.3298361,17.9239344 L43.3836066,1.13377049 C41.56,0.0950819672 39.1711475,0.0950819672 37.3331148,1.13377049 L8.16065574,17.9239344 C6.27934426,19.0065574 5,21.0413115 5,23.2177049 L5,56.7534426 C5,58.9298361 6.30622951,60.9652459 8.18819672,62.0537705 L15.8793443,66.4393443 C19.5691803,68.2570492 20.5914754,68.2570492 22.2701639,68.2570492 C27.735082,68.2570492 30.5731148,64.9527869 30.5731148,59.1895082 L30.5731148,26.0813115 C30.5737705,25.6137705 30.8655738,24.9180328 30.4059016,24.9180328 L26.7193443,24.9180328 C26.252459,24.9180328 25.3278689,25.6137705 25.3278689,26.0806557 L25.3278689,59.1888525 C25.3278689,61.7436066 22.9567213,64.2859016 18.6380328,62.1265574 L10.6891803,57.5278689 C10.412459,57.3770492 10.2459016,57.0734426 10.2459016,56.7534426 L10.2459016,23.2177049 C10.2459016,22.9016393 10.5495082,22.5842623 10.8301639,22.4222951 L39.9304918,5.66098361 C40.202623,5.50688525 40.587541,5.50688525 40.8583607,5.66098361 L69.6865574,22.4183607 C69.962623,22.5842623 69.9186885,22.8918033 69.9186885,23.2177049 L69.9186885,56.7534426 C69.9186885,57.0734426 69.9790164,57.384918 69.7068852,57.5390164 L40.7672131,74.3101639 C40.5193443,74.4590164 40.1967213,74.4590164 39.9245902,74.3101639 L32.5036066,69.8845902 C32.28,69.7547541 32.0104918,69.7081967 31.7954098,69.8281967 C29.7331148,70.997377 29.3501639,71.1527869 27.4157377,71.8236066 C26.9390164,71.9895082 26.2360656,72.277377 27.6832787,73.0885246 L37.3868852,78.8288525 C38.3154098,79.3665574 39.3718033,79.6459016 40.4340984,79.6459016 C41.5108197,79.6459016 42.5645902,79.3665574 43.4937705,78.8288525 L72.3304918,62.0537705 C74.2131148,60.957377 75.1645902,58.9298361 75.1645902,56.7534426 L75.1645902,23.2177049 C75.1639344,21.0413115 74.212459,19.0118033 72.3298361,17.9239344 Z M49.4111475,51.4393443 C41.7213115,51.4393443 40.0281967,49.3180328 39.4636066,45.4944262 C39.3967213,45.082623 39.0478689,44.5901639 38.6281967,44.5901639 L34.8708197,44.5901639 C34.4059016,44.5901639 34.0314754,45.1540984 34.0314754,45.6170492 C34.0314754,50.5127869 36.6937705,56.4445902 49.4111475,56.4445902 C58.6163934,56.4445902 63.895082,52.867541 63.895082,46.5370492 C63.895082,40.2603279 59.6544262,38.6131148 50.7265574,37.4314754 C41.7022951,36.2386885 40.7855738,35.6360656 40.7855738,33.5219672 C40.7855738,31.7790164 41.5619672,29.4544262 48.2439344,29.4544262 C54.2137705,29.4544262 56.4144262,30.7357377 57.32,34.76 C57.3980328,35.1383607 57.7436066,35.4098361 58.1337705,35.4098361 L61.9068852,35.4098361 C62.1390164,35.4098361 62.36,35.3160656 62.522623,35.1501639 C62.6806557,34.9718033 62.7632787,34.7481967 62.7429508,34.5081967 C62.157377,27.5777049 57.5540984,24.3481967 48.2432787,24.3481967 C39.96,24.3481967 35.0196721,27.8459016 35.0196721,33.7088525 C35.0196721,40.0681967 39.9357377,41.8255738 47.8865574,42.6118033 C57.3980328,43.5442623 58.1377049,44.9344262 58.1377049,46.8052459 C58.1377049,50.055082 55.5291803,51.4393443 49.4111475,51.4393443 Z" id="Shape" fill="#52636C" fill-rule="nonzero"></path>
    </g>
</svg>