<?xml version="1.0" encoding="UTF-8" standalone="no"?>
<svg width="80px" height="80px" viewBox="0 0 80 80" version="1.1" xmlns="http://www.w3.org/2000/svg" xmlns:xlink="http://www.w3.org/1999/xlink">
    <!-- Generator: Sketch 50.2 (55047) - http://www.bohemiancoding.com/sketch -->
    <title>Icons/Programming Languages/icon-kafka</title>
    <desc>Created with Sketch.</desc>
    <defs></defs>
    <g id="Icons/Programming-Languages/icon-kafka" stroke="none" stroke-width="1" fill="none" fill-rule="evenodd">
        <path d="M53.9116887,44.056485 C50.9796129,44.056485 48.3509609,45.3555091 46.5508847,47.4006882 L41.9382892,44.1352863 C42.427935,42.787171 42.7090789,41.3396039 42.7090789,39.8244684 C42.7090789,38.3356 42.4377169,36.9123079 41.9641934,35.5841178 L46.5664629,32.3533154 C48.3663593,34.3881684 50.9881268,35.6801281 53.9116887,35.6801281 C59.3235128,35.6801281 63.7270623,31.2772855 63.7270623,25.8647164 C63.7270623,20.4521475 59.3235128,16.0493061 53.9116887,16.0493061 C48.4998661,16.0493061 44.0963166,20.4521475 44.0963166,25.8647164 C44.0963166,26.8335045 44.2426856,27.767693 44.5053508,28.6524276 L39.9000026,31.8848624 C37.9762015,29.4982158 35.2062528,27.8318197 32.0502772,27.3231522 L32.0502772,21.772729 C36.4963953,20.8389017 39.8463819,16.8885724 39.8463819,12.1683568 C39.8463819,6.75578743 35.442834,2.35294608 30.0310103,2.35294608 C24.6191864,2.35294608 20.2156376,6.75578743 20.2156376,12.1683568 C20.2156376,16.825351 23.4788541,20.7269519 27.8360289,21.7274406 L27.8360289,27.3499619 C21.8896347,28.393747 17.3529413,33.5833202 17.3529413,39.8244684 C17.3529413,46.0960492 21.9345595,51.3046437 27.9238862,52.3129223 L27.9238862,58.2499201 C23.5221487,59.2174401 20.2156376,63.142953 20.2156376,67.8316487 C20.2156376,73.2442178 24.6191864,77.6470588 30.0310103,77.6470588 C35.442834,77.6470588 39.8463819,73.2442178 39.8463819,67.8316487 C39.8463819,63.142953 36.5398714,59.2174401 32.1381344,58.2499201 L32.1381344,52.3127425 C35.2319757,51.7917553 37.9510212,50.1583296 39.8550771,47.8245783 L44.4984679,51.1111766 C44.240692,51.9879399 44.0963166,52.9128906 44.0963166,53.8718967 C44.0963166,59.2844658 48.4998661,63.6873068 53.9116887,63.6873068 C59.3235128,63.6873068 63.7270623,59.2844658 63.7270623,53.8718967 C63.7270623,48.4593276 59.3235128,44.056485 53.9116887,44.056485 Z M53.9116887,21.105735 C56.5359939,21.105735 58.6704719,23.2411265 58.6704719,25.8647164 C58.6704719,28.4883063 56.5359939,30.6235165 53.9116887,30.6235165 C51.287385,30.6235165 49.152907,28.4883063 49.152907,25.8647164 C49.152907,23.2411265 51.287385,21.105735 53.9116887,21.105735 Z M25.2720471,12.1683568 C25.2720471,9.54476696 27.406706,7.40955643 30.0310103,7.40955643 C32.655315,7.40955643 34.7897915,9.54476696 34.7897915,12.1683568 C34.7897915,14.7919467 32.655315,16.9271571 30.0310103,16.9271571 C27.406706,16.9271571 25.2720471,14.7919467 25.2720471,12.1683568 Z M34.7897915,67.8316487 C34.7897915,70.4552386 32.655315,72.5904488 30.0310103,72.5904488 C27.406706,72.5904488 25.2720471,70.4552386 25.2720471,67.8316487 C25.2720471,65.2080588 27.406706,63.072847 30.0310103,63.072847 C32.655315,63.072847 34.7897915,65.2080588 34.7897915,67.8316487 Z M30.030648,46.4614274 C26.3705341,46.4614274 23.3929895,43.4844146 23.3929895,39.8244684 C23.3929895,36.1643408 26.3705341,33.1867839 30.030648,33.1867839 C33.6905807,33.1867839 36.6681244,36.1643408 36.6681244,39.8244684 C36.6681244,43.4844146 33.6905807,46.4614274 30.030648,46.4614274 Z M53.9116887,58.6308782 C51.287385,58.6308782 49.152907,56.4954866 49.152907,53.8718967 C49.152907,51.2483068 51.287385,49.1130966 53.9116887,49.1130966 C56.5359939,49.1130966 58.6704719,51.2483068 58.6704719,53.8718967 C58.6704719,56.4954866 56.5359939,58.6308782 53.9116887,58.6308782 Z" id="path6" fill="#52636C" fill-rule="nonzero"></path>
    </g>
</svg>