<?xml version="1.0" encoding="UTF-8" standalone="no"?>
<svg width="80px" height="80px" viewBox="0 0 80 80" version="1.1" xmlns="http://www.w3.org/2000/svg" xmlns:xlink="http://www.w3.org/1999/xlink">
    <!-- Generator: Sketch 50.2 (55047) - http://www.bohemiancoding.com/sketch -->
    <title>Icons/Programming Languages/icon-apache</title>
    <desc>Created with Sketch.</desc>
    <defs></defs>
    <g id="Icons/Programming-Languages/icon-apache" stroke="none" stroke-width="1" fill="none" fill-rule="evenodd">
        <rect id="Rectangle" fill="#D8D8D8" opacity="0" x="0" y="0" width="80" height="80"></rect>
        <path d="M79.9900022,47.9366672 L79.8000022,47.6200005 L79.6733355,47.5566672 L79.6733355,47.3033338 L79.6100021,47.0500005 L79.4833355,46.8600005 L79.2300021,46.7333338 L79.1666688,46.7333338 L79.1033355,46.6066671 L78.9133355,46.4800005 L78.7233355,46.3533338 L78.4700021,46.2900005 L78.3433354,46.2900005 L78.0900021,46.0366671 L77.7733354,45.8466671 L77.3933354,45.6566671 L77.0133354,45.5300004 L76.8866687,45.5300004 L76.5700021,45.1500004 L76.1900021,44.8966671 L75.810002,44.7066671 L75.430002,44.5800004 L75.3666687,44.5800004 L74.9866687,44.3266671 L74.480002,44.1366671 L74.1633353,44.0733337 L73.8466687,43.8200004 L73.530002,43.6933337 L73.2133353,43.6300004 L72.8966686,43.5666671 L72.580002,43.5666671 L72.2000019,43.6300004 L72.1366686,43.6300004 L71.8833353,43.2500004 L71.5033353,42.996667 L70.9966686,42.8700004 L70.4266686,42.8700004 L69.7933352,42.996667 L69.5400019,43.0600004 L69.0333352,42.8700004 L68.5266685,42.7433337 L66.8800018,42.7433337 L66.2466685,42.4900004 L65.6766684,42.3000004 L65.1066684,42.236667 L64.7266684,42.236667 L64.2200017,41.7300003 L63.6500017,41.3500003 L63.143335,41.096667 L62.6366684,40.9700003 L62.1300017,40.9700003 L61.8766683,41.1600003 L61.5600017,40.906667 L61.1800017,40.716667 L60.7366683,40.6533336 L60.3566683,40.716667 L59.913335,40.526667 L59.4700016,40.4000003 L58.8366683,40.4000003 L58.1400016,40.146667 L57.3800015,39.956667 L56.6833349,39.8933336 L56.5566682,39.8933336 L55.7966682,39.4500003 L55.0366682,39.2600003 L54.3400015,39.2600003 L54.4033348,39.2600003 L53.3266681,39.0066669 L52.6300014,38.9433336 L52.3133347,38.9433336 L51.8700014,38.5000003 L51.3633347,38.1833336 L50.7933347,38.0566669 L50.2233347,38.1200002 L49.8433347,38.2466669 L49.336668,38.1833336 L48.196668,38.1833336 L48.196668,38.0566669 L47.3100013,37.8666669 L46.4233346,37.7400002 L45.6000012,37.6766669 L45.2833346,37.7400002 L45.2833346,37.6766669 L44.6500012,37.6133336 L44.0166679,37.5500002 L43.9533345,37.5500002 L43.2566678,37.2333336 L42.5600011,37.0433336 L41.9266678,36.9800002 L41.4200011,36.9800002 L40.7233344,36.7266669 L40.1533344,36.6000002 L39.5200011,36.6000002 L38.8233344,36.0933335 L38.2533344,35.9033335 L37.810001,35.8400002 L37.3033343,35.5866668 L36.5433343,35.4600002 L35.8466676,35.4600002 L35.1500009,35.1433335 L34.5166676,35.0166668 L34.1366676,35.0166668 L33.3766676,34.6366668 L32.7433342,34.4466668 L32.1100009,34.3833335 L31.9200009,34.4466668 L31.9833342,34.4466668 L31.0966675,33.9400001 L30.4000008,33.6866668 L29.7666675,33.6233335 L29.7033341,33.6233335 L29.2600008,33.3066668 L28.8800008,33.1166668 L28.5000008,32.9900001 L28.0566674,32.9266668 L27.6133341,32.9900001 L27.1066674,32.6100001 L26.6633341,32.4200001 L26.093334,32.3566668 L25.5866674,32.3566668 L25.0166673,32.4833334 L24.8900007,32.5466668 L24.2566673,32.2300001 L23.623334,32.0400001 L23.053334,32.0400001 L22.5466673,31.7233334 L22.1033339,31.5333334 L21.5966672,31.5333334 L21.1533339,31.5966667 L20.7100006,31.7233334 L20.6466672,31.7233334 L20.2033339,31.2800001 L19.8233339,31.0266667 L19.3800005,30.9633334 L18.9366672,31.0266667 L18.5566672,31.2166667 L18.4300005,31.1533334 L18.2400005,31.0266667 L18.0500005,30.9633334 L17.8600005,30.9000001 L17.4166671,30.9000001 L17.2266671,30.9633334 L16.9100005,31.1533334 L16.8466671,31.2166667 L16.2766671,31.0900001 L15.7700004,31.0900001 L15.3266671,31.2166667 L14.9466671,31.5333334 L14.6933337,31.8500001 L14.5033337,32.2933334 L14.3133337,32.8000001 L14.186667,33.3066668 L14.1233337,33.8133335 L14.0600004,34.8266668 L14.1233337,35.9666669 L14.1233337,36.1566669 C13.806667,36.0300002 13.4900004,35.9033335 13.1100004,35.7766668 L13.1100004,35.5233335 L13.1733337,35.1433335 L13.236667,34.3200001 L13.3000004,33.5600001 L13.236667,32.8000001 L13.1733337,32.4200001 L13.1100004,32.1033334 L13.046667,31.7866667 L12.9200003,31.4700001 L12.7933337,31.2166667 L12.6033337,30.9633334 L12.4133337,30.71 L12.0333337,30.3933334 L12.1600003,30.9633334 L12.2233337,31.3433334 L12.286667,31.7233334 L12.3500003,32.0400001 L12.4133337,32.4200001 L12.476667,32.7366668 L12.476667,32.8000001 L12.476667,32.7366668 L12.4133337,32.5466668 L12.3500003,32.3566668 L12.2233337,31.9766667 L12.0333337,31.3433334 L11.9700003,31.1533334 L11.8433337,30.33 L11.8433337,30.0766667 L11.906667,29.6333334 L11.9700003,29.4433333 L12.096667,29 L11.9700003,29 L11.6533336,29.38 L11.4633336,29.8233334 L11.2733336,30.2666667 L11.2100003,30.6466667 L11.2100003,31.5333334 L11.2733336,31.9766667 L11.336667,32.4200001 L11.2733336,32.3566668 L11.0833336,32.1033334 L10.8933336,31.8500001 L10.766667,31.5333334 L10.6400003,31.2166667 L10.5133336,30.9000001 L10.4500003,30.4566667 L10.3866669,29.8233334 L9.9433336,30.2033334 L9.7533336,30.5833334 L9.62666693,30.9633334 L9.62666693,31.3433334 L9.69000026,31.7233334 L9.81666693,32.1033334 L10.0066669,32.4833334 L10.0700003,32.6100001 L9.9433336,32.7366668 L9.56333359,32.6733334 L9.50000026,32.8000001 L9.7533336,32.9266668 L10.0066669,33.1166668 L10.6400003,33.6233335 L10.8300003,33.8133335 L11.146667,34.1933335 L11.4633336,34.5100001 L11.7800003,34.8266668 L12.0333337,35.0800002 L12.2233337,35.3333335 L12.3500003,35.4600002 C8.74000024,34.0033335 4.94000013,32.2933334 0.25333334,30.0766667 L0,29.95 L0.12666667,30.2033334 C0.760000021,31.2800001 2.59666674,32.3566668 4.18000011,33.3700001 C4.94000013,33.8133335 5.63666682,34.2566668 6.1433335,34.6366668 C7.66333354,35.4600002 9.69000026,36.3466669 11.4633336,37.0433336 L11.336667,37.0433336 L10.0700003,37.2966669 L9.18333358,37.4866669 L8.29666689,37.8033336 L7.85333355,37.9933336 L7.4100002,38.1200002 L7.03000019,38.3733336 L6.71333351,38.6266669 L6.39666684,38.9433336 L6.1433335,39.2600003 L5.95333349,39.6400003 L5.82666682,40.0833336 L5.95333349,40.146667 L6.08000016,40.0200003 L6.39666684,39.7033336 L6.52333351,39.576667 L6.90333352,39.3233336 L7.09333352,39.1966669 L7.28333353,39.0700003 L7.66333354,38.8800003 L7.91666688,38.8166669 L8.10666689,38.7533336 L8.55000023,38.6266669 L8.99333358,38.5633336 L9.37333359,38.4366669 L10.1966669,37.9933336 L10.576667,37.7400002 L10.956667,37.4866669 L11.2733336,37.2966669 L11.526667,37.1700002 L11.716667,37.1066669 L12.096667,37.2333336 L10.576667,37.9933336 L9.7533336,38.5000003 L9.31000025,38.8166669 L8.93000024,39.1333336 L8.55000023,39.4500003 L8.23333356,39.8300003 L8.04333355,40.146667 L7.91666688,40.526667 L7.85333355,40.906667 L7.91666688,41.3500003 L8.17000022,41.9200003 L8.4866669,41.286667 L8.74000024,40.906667 L8.99333358,40.5900003 L9.24666692,40.336667 L9.50000026,40.146667 L10.0700003,39.766667 L10.3233336,39.6400003 L10.2600003,39.8933336 L10.1333336,40.4000003 L10.1333336,40.9700003 L10.1966669,41.6033337 L10.3866669,42.3000004 L10.5133336,42.3000004 L10.6400003,41.6033337 L10.8300003,40.9700003 L10.956667,40.6533336 L11.2100003,40.0833336 L11.526667,39.5133336 L12.0333337,38.6266669 L12.7300003,37.4866669 C12.9833337,37.6133336 13.236667,37.6766669 13.4900004,37.7400002 L13.426667,37.8666669 L12.9833337,38.7533336 L12.7300003,39.1333336 L12.5400003,39.576667 L12.476667,40.0200003 L12.3500003,40.4633336 L12.286667,40.906667 L12.286667,41.3500003 L12.3500003,41.7300003 L12.5400003,42.1100004 L12.856667,42.426667 L13.3000004,42.6800004 L13.806667,42.8700004 L13.996667,43.2500004 L14.2500004,43.5666671 L14.5033337,43.8200004 L14.7566671,44.0100004 L15.0100004,44.1366671 L15.2633337,44.2000004 L15.8966671,44.2000004 L15.8966671,44.2633337 L16.1500004,44.6433338 L16.5300004,44.9600004 L16.9733338,45.1500004 L17.4800005,45.1500004 L17.9866672,45.0233338 L18.1133338,45.1500004 L18.4933338,45.5300004 L18.8733338,45.7833338 L19.3166672,45.9733338 L19.8233339,46.0366671 L20.2033339,46.0366671 L20.5833339,46.2900005 L21.0266672,46.4800005 L21.5333339,46.6066671 L21.9133339,46.9233338 L22.4200006,47.1766672 L23.053334,47.3033338 L23.7500006,47.3666672 L23.8766673,47.3666672 L24.3200007,47.7466672 L24.8266673,48.0000005 L25.2700007,48.1900005 L25.7766674,48.2533339 L26.3466674,48.1266672 L26.6000007,48.2533339 L26.9800007,48.4433339 L27.3600007,48.5066672 L27.7400007,48.5066672 L28.1200008,48.4433339 L28.3100008,48.5700005 L28.9433341,48.7600005 L29.6400008,48.8233339 L30.4633342,48.7600005 L30.7166675,48.8866672 L31.2866675,49.0766672 L31.9200009,49.1400005 L32.8066676,49.0766672 L32.8700009,49.0766672 L33.4400009,49.2666672 L34.0733343,49.3300005 L34.7700009,49.2666672 L35.0233343,49.4566672 L35.6566676,49.7100006 L36.290001,49.7733339 L36.9866677,49.7100006 L36.9866677,49.6466672 L37.3666677,49.7733339 L38.000001,49.7733339 L38.6966677,49.6466672 L39.1400011,49.7733339 L39.6466677,49.7733339 L40.1533344,49.7100006 L40.8500011,49.8366672 L41.0400011,49.9633339 L41.6733345,50.1533339 L42.3066678,50.2800006 L43.0033345,50.3433339 L43.7000012,50.2800006 L43.7000012,50.2166672 L44.0800012,50.3433339 L44.6500012,50.4066672 L45.2200012,50.4700006 L45.2200012,50.4066672 L45.6000012,50.5333339 L46.3600013,50.7866673 L47.1833346,50.9766673 L48.0700013,50.7866673 L48.0700013,50.7233339 L48.196668,50.7233339 L48.766668,50.8500006 L49.2733347,50.9133339 L49.8433347,50.9133339 L49.906668,50.9766673 L50.4133347,51.3566673 L50.9200014,51.6100006 L51.7433347,51.6100006 L52.2500014,51.3566673 L52.6933348,50.9766673 L53.2633348,51.0400006 L53.9600015,50.9766673 L54.7200015,50.9766673 L54.7200015,51.0400006 L54.9100015,51.1666673 L55.6066682,51.2933339 L56.3033349,51.2300006 L57.0000015,50.9133339 L57.6333349,50.9133339 L58.3933349,50.9766673 L59.0266683,50.9133339 L59.4066683,50.9766673 L60.293335,50.9766673 L60.863335,50.9133339 L61.1800017,51.0400006 L61.5600017,51.1033339 L61.9400017,51.0400006 L62.3200017,50.8500006 L62.383335,50.9133339 L62.8900017,50.9766673 L64.4733351,50.9766673 L64.9800018,50.7866673 L65.6766684,50.5333339 L66.6900018,50.5333339 L67.1966685,50.4700006 L67.5133352,50.5966672 L68.0200018,50.7233339 L68.5266685,50.7866673 L69.0333352,50.7233339 L69.6033352,50.5966672 L69.7300019,50.6600006 L70.3000019,50.9133339 L70.8066686,51.1033339 L71.3133353,51.1033339 L71.6933353,50.9133339 L72.0100019,50.5966672 L72.2000019,50.6600006 L72.5166686,50.7233339 L72.8333353,50.7866673 L73.150002,50.7866673 L73.4666686,50.7233339 L73.7833353,50.5966672 L74.2266687,50.6600006 L74.7333354,50.5966672 L75.1766687,50.4066672 L75.620002,50.4066672 L76.0000021,50.3433339 L76.3800021,50.1533339 L76.6966687,49.9000006 L76.7600021,49.8366672 L77.1400021,49.9000006 L77.5200021,49.8366672 L77.8366688,49.9000006 L78.4066688,49.9000006 L78.6600021,49.7100006 L78.8500021,49.5833339 L78.9133355,49.4566672 L78.9766688,49.4566672 L79.1666688,49.3933339 L79.3566688,49.2666672 L79.4833355,48.9500005 L79.5466688,48.5700005 L79.6733355,48.5700005 L79.8633355,48.5066672 L79.9266688,48.3166672 L79.9900022,48.3800005 L79.9900022,47.9366672 Z M12.2233337,37.6133336 L12.3500003,37.2966669 L12.5400003,37.3600002 L12.4133337,37.4866669 L12.2233337,37.6133336 Z M12.6033337,33.3066668 L12.666667,33.6233335 L12.7300003,33.9400001 L12.7933337,34.2566668 L12.9833337,35.2700002 L13.1100004,35.7133335 L12.856667,35.5866668 L12.9200003,35.5866668 L12.7933337,35.5233335 L12.476667,35.2700002 L12.476667,33.7500001 L12.5400003,33.2433334 L12.6033337,33.3066668 Z" id="Shape" fill="#52636C" fill-rule="nonzero"></path>
    </g>
</svg>