<?xml version="1.0" encoding="UTF-8" standalone="no"?>
<svg width="80px" height="80px" viewBox="0 0 80 80" version="1.1" xmlns="http://www.w3.org/2000/svg" xmlns:xlink="http://www.w3.org/1999/xlink">
    <!-- Generator: Sketch 50.2 (55047) - http://www.bohemiancoding.com/sketch -->
    <title>Icons/Programming Languages/icon-rails</title>
    <desc>Created with Sketch.</desc>
    <defs></defs>
    <g id="Icons/Programming-Languages/icon-rails" stroke="none" stroke-width="1" fill="none" fill-rule="evenodd">
        <rect id="Rectangle" fill="#D8D8D8" opacity="0" x="0" y="0" width="80" height="80"></rect>
        <path d="M69.474836,7.91741905 C61.5999976,4.03161275 53.5341915,3.63612889 45.2761273,6.55548362 C37.6767728,9.24193513 31.6148375,14.0490317 27.1083861,20.5961282 C19.4832251,31.6748375 13.9445156,43.7632241 10.8406447,56.8948365 C9.25096739,63.6154814 8.22129001,70.7438683 8.49806419,77.6845132 C8.52064484,78.2477389 8.6045158,78.4096744 8.65999967,79.6999969 L47.6058046,79.6999969 C47.4941917,78.4096744 47.4206433,78.7864486 47.3238692,78.5406422 C45.2754821,73.3109649 43.6535467,67.7883845 42.5316113,62.2838686 C40.9199984,54.3799979 40.0761275,46.3296756 41.7406436,38.3529018 C44.0703209,27.1832248 50.4374174,19.1238702 61.1709654,14.9445156 C67.2509652,12.5787092 73.0219327,13.2516124 78.0832228,17.6941929 C78.1296744,17.734838 78.2251583,17.7103219 78.3490293,17.7303219 L80.0038679,15.2251607 C76.8167713,12.1909673 73.3148359,9.81290285 69.474836,7.91741905 Z M0.864516096,59.30903 C0.567741914,61.8399976 0.29032257,64.209675 0,66.6967716 L7.18193521,67.5587071 L8.49741903,59.8858042 C5.8812901,59.6877397 3.39677406,59.4999977 0.864516096,59.30903 Z M14.9612897,37.253547 L8.20580614,34.6103213 L6.02258041,40.8083855 L12.9070963,43.0148371 C13.6038704,41.0593533 14.2593543,39.2199985 14.9612897,37.253547 Z M46.8445143,71.8722553 C49.1509659,72.0438682 51.4619335,72.1619327 54.0077399,72.3103198 C53.0832238,70.3883844 52.2619335,68.65032 51.4019335,66.9329007 C51.30774,66.7464491 50.9896755,66.5664491 50.7735464,66.5632233 C48.8167723,66.5348362 46.8587079,66.5470942 44.7793531,66.5470942 C45.2477402,68.242578 45.654837,69.8070941 46.1316111,71.3490295 C46.203224,71.5819327 46.5877402,71.8535456 46.8445143,71.8722553 Z M26.4109667,18.4761283 L21.2787089,15.0774188 C19.903225,16.6148381 18.5767735,18.0967735 17.1761284,19.6612896 L22.4522572,23.2070959 L26.4109667,18.4761283 Z M42.7554822,52.9077399 C42.7470951,53.1148367 42.9335467,53.4445141 43.1154822,53.5264496 C44.9638692,54.3574173 46.8316111,55.1490301 48.8651594,56.0251591 C48.7806433,54.4174173 48.7238691,53.0735464 48.6277401,51.7322561 C48.6103207,51.4909658 48.4967723,51.143869 48.3180627,51.0445142 C46.6206434,50.1051594 44.8993531,49.2077401 43.0174177,48.2090304 C42.9148371,49.9283852 42.8103209,51.4167722 42.7554822,52.9077399 Z M41.2348371,6.34516105 L37.7212889,2.35741926 L32.8832245,4.87225788 C34.0935471,6.34709653 35.2361277,7.73870938 36.4025793,9.15870933 L41.2348371,6.34516105 Z M43.4380629,38.0716114 C43.3329016,38.3129018 43.4716112,38.8245146 43.678708,39.0109662 C45.0819338,40.2767727 46.5329014,41.4883855 48.1470949,42.8696758 C48.5167723,41.3212887 48.8651594,39.9412888 49.1606433,38.5516114 C49.2129013,38.3045147 49.1399981,37.8961276 48.9683852,37.7580631 C47.7129014,36.745805 46.4167724,35.7819341 45.0735467,34.757418 C44.4832241,35.9283857 43.9109661,36.9787083 43.4380629,38.0716114 Z M51.4703206,4.24967726 C53.2638689,4.29806435 55.0593527,4.27677403 56.9535462,4.27677403 C56.764514,2.9580644 56.6741914,1.9587096 56.4490301,0.991612865 C56.3819333,0.703870941 55.9490301,0.320645149 55.6567721,0.296129021 C53.8587076,0.150322575 52.0535464,0.0941935448 50.075482,0 C50.3393529,1.33096769 50.5406432,2.50387087 50.8251593,3.65677405 C50.8851593,3.90129017 51.2425787,4.24322564 51.4703206,4.24967726 Z M53.6541915,27.2658054 C53.7458044,27.0941925 53.7690302,26.7825796 53.6729012,26.6329022 C52.7916109,25.2541926 51.876127,23.8967733 50.9283851,22.4683862 L47.8574175,25.2890313 L52.103869,29.9948376 C52.6741915,29.0019344 53.1845141,28.1445151 53.6541915,27.2658054 Z M56.9670946,17.8935477 L58.8012881,21.3006443 C61.6716105,19.7277412 61.9464492,19.1587089 60.9303202,16.8916123 L56.9670946,17.8935477 Z M70.7006425,7.39483843 C71.894836,8.13161259 73.1561262,8.7593545 74.4374165,9.44967706 L75.295481,8.11419324 C73.7329004,6.97161264 72.2245134,5.86645139 70.5129005,4.61354821 C70.4458038,5.32580625 70.3458038,5.82322558 70.3716102,6.31483847 C70.3922554,6.68967716 70.454836,7.24387069 70.7006425,7.39483843 Z M69.0348361,18.1812896 C70.3251586,18.3212896 72.2606424,18.454838 73.5509649,18.5961283 L73.5509649,16.84258 C72.2606424,16.5599994 70.3251586,16.2799994 69.0348361,15.9890316 L69.0348361,18.1812896 Z" id="Shape" fill="#52636C"></path>
    </g>
</svg>