<?xml version="1.0" encoding="UTF-8" standalone="no"?>
<svg width="80px" height="80px" viewBox="0 0 80 80" version="1.1" xmlns="http://www.w3.org/2000/svg" xmlns:xlink="http://www.w3.org/1999/xlink">
    <!-- Generator: Sketch 50.2 (55047) - http://www.bohemiancoding.com/sketch -->
    <title>Icons/Programming Languages/icon-atlassian</title>
    <desc>Created with Sketch.</desc>
    <defs></defs>
    <g id="Icons/Programming-Languages/icon-atlassian" stroke="none" stroke-width="1" fill="none" fill-rule="evenodd">
        <rect id="Rectangle" fill="#D8D8D8" opacity="0" x="0" y="0" width="80" height="80"></rect>
        <path d="M23.7454489,36.471208 C34.0921614,47.525776 37.664562,66.0465631 31.7698557,78.2273206 C31.3886362,79.036455 30.5662528,79.5447937 29.6720517,79.5240333 L2.34539516,79.5240333 C1.53251481,79.5239564 0.777624292,79.1030176 0.350285889,78.4115291 C-0.0770525137,77.7200405 -0.115909145,76.8565943 0.247591228,76.1295167 L19.8724857,36.8919955 C20.208979,36.1699027 20.898397,35.6761883 21.6903829,35.5901411 C22.4823688,35.5040938 23.2617306,35.838229 23.7454489,36.471208 Z M37.8025892,1.2587452 C38.1696321,0.492186872 38.94283,0.00315131663 39.7927255,1.51708974e-05 C40.642621,-0.00312097483 41.4194069,0.480195083 41.792097,1.24402377 C42.7158668,3.08297588 79.4728268,76.6054833 79.4728268,76.6054833 C79.8363272,77.332561 79.7974705,78.1960072 79.3701321,78.8874957 C78.9427937,79.5789842 78.1879032,79.9999231 77.3750229,80 L50.0532735,80 C49.1648644,79.9999159 48.3527445,79.4979213 47.9554695,78.7032873 L34.7810154,52.3543791 C26.7062777,35.9815754 27.854445,16.565754 37.8025892,1.2587452 Z" id="Combined-Shape" fill="#52636C" fill-rule="nonzero"></path>
    </g>
</svg>