<?xml version="1.0" encoding="UTF-8" standalone="no"?>
<svg width="80px" height="80px" viewBox="0 0 80 80" version="1.1" xmlns="http://www.w3.org/2000/svg" xmlns:xlink="http://www.w3.org/1999/xlink">
    <!-- Generator: Sketch 50.2 (55047) - http://www.bohemiancoding.com/sketch -->
    <title>Icons/Programming Languages/icon-gitlab</title>
    <desc>Created with Sketch.</desc>
    <defs></defs>
    <g id="Icons/Programming-Languages/icon-gitlab" stroke="none" stroke-width="1" fill="none" fill-rule="evenodd">
        <rect id="Rectangle" fill="#D8D8D8" opacity="0" x="0" y="0" width="80" height="80"></rect>
        <path d="M79.7555556,45.1015873 L75.2895238,31.3580952 L66.4387302,4.11873016 C66.095873,3.06349206 64.8895238,2.80444444 64.1187302,3.33777778 C63.8647619,3.51301587 63.6590476,3.87936508 63.5460317,4.22539683 L54.6946032,31.5714286 L25.3053968,31.5714286 L19.4412698,13.4190476 L16.4552381,4.17269841 C16.4023182,3.99907289 16.3226295,3.83476842 16.2190476,3.68571429 C16.1695238,3.61968254 16.1047619,3.56253968 16.047619,3.50793651 C15.4526984,2.94285714 14.4825397,2.95174603 13.9142857,3.55365079 C13.7549554,3.71353051 13.6342175,3.90766664 13.5612698,4.12126984 L4.71047619,31.3593651 L2.84,37.1168254 L0.244444444,45.1015873 C-0.0723533765,46.0830123 0.130909543,47.1581536 0.784126984,47.9561905 C0.949206349,48.1574603 1.13333333,48.3453968 1.34920635,48.5022222 L40,76.584127 L78.6501587,48.5034921 C79.717366,47.7295138 80.1636282,46.3555905 79.7549206,45.1022222 L79.7555556,45.1015873 Z" id="Shape" fill="#52636C" fill-rule="nonzero"></path>
    </g>
</svg>