<?xml version="1.0" encoding="UTF-8" standalone="no"?>
<svg width="80px" height="80px" viewBox="0 0 80 80" version="1.1" xmlns="http://www.w3.org/2000/svg" xmlns:xlink="http://www.w3.org/1999/xlink">
    <!-- Generator: Sketch 50.2 (55047) - http://www.bohemiancoding.com/sketch -->
    <title>Icons/Programming Languages/icon-opengl</title>
    <desc>Created with Sketch.</desc>
    <defs></defs>
    <g id="Icons/Programming-Languages/icon-opengl" stroke="none" stroke-width="1" fill="none" fill-rule="evenodd">
        <rect id="Rectangle" fill="#D8D8D8" opacity="0" x="0" y="0" width="80" height="80"></rect>
        <path d="M12.6748013,33.8678895 C12.848572,33.7685371 13.0287442,33.6755895 13.2153078,33.5890538 C14.1056637,33.1764953 15.1424966,32.9695947 16.3254956,32.9695947 C17.507951,32.9695947 18.5448615,33.1764953 19.4352174,33.5890538 C20.3254956,34.0020006 21.0702289,34.5609583 21.66833,35.2651503 C22.2664311,35.96942 22.7154923,36.7790039 23.014504,37.6930477 C23.3135934,38.6069363 23.4635652,39.5588031 23.4635652,40.5474834 C23.4635652,41.5362413 23.3135934,42.4876422 23.014504,43.4016861 C22.7154923,44.3157299 22.2664311,45.1252362 21.66833,45.8294281 C21.0702289,46.5336201 20.3254956,47.0960728 19.4352174,47.5156212 C18.5448615,47.9353249 17.507951,48.1456427 16.3254956,48.1456427 C15.1424966,48.1456427 14.1056637,47.9353249 13.2153078,47.5156212 C13.1832254,47.5005022 13.151332,47.4851976 13.1196276,47.4697074 C17.8705599,51.4622147 26.5650323,54.1358957 36.50366,54.1358957 C44.8776964,54.1358957 52.3859193,52.4156853 57.3787935,49.4299174 C51.9290138,54.4325775 42.1576219,57.9477902 30.9852242,57.9494212 C13.8741433,57.9521394 0.00148656195,50.1304592 2.13162821e-14,40.4795262 C-0.00145622585,30.8287486 13.8685513,23.0023368 30.9797099,23.0000007 C42.107683,22.9981501 51.8537561,26.5021035 57.3176708,31.4697986 C52.3249519,28.5025928 44.8470186,26.8136737 36.50366,26.8136737 C26.2463025,26.8136737 17.3141795,29.6615247 12.6748013,33.8678895 Z M11.4562647,38.3765031 C11.2611693,39.0883839 11.1640875,39.8102836 11.1640875,40.5422798 C11.1640875,41.274276 11.2611693,41.9956321 11.4562647,42.7075129 C11.6514378,43.4193938 11.9578277,44.0598225 12.3759781,44.629498 C12.7937402,45.1985523 13.3300196,45.6560014 13.9850494,46.001923 C14.6395356,46.3477669 15.419529,46.5207277 16.3254956,46.5207277 C17.2309963,46.5207277 18.0109897,46.3477669 18.6660195,46.001923 C19.3205056,45.6560014 19.856785,45.1985523 20.2750131,44.629498 C20.6926975,44.0598225 20.9990874,43.4193938 21.1942605,42.7075129 C21.3892783,41.9956321 21.4869037,41.274276 21.4869037,40.5422798 C21.4869037,39.8102836 21.3892783,39.0883839 21.1942605,38.3765031 C20.9990874,37.6646999 20.6926975,37.0241935 20.2750131,36.4549839 C19.856785,35.8855414 19.3205056,35.4280923 18.6660195,35.082093 C18.0109897,34.7363268 17.2309963,34.5639096 16.3254956,34.5639096 C15.419529,34.5639096 14.6395356,34.7363268 13.9850494,35.082093 C13.3300196,35.4280923 12.7937402,35.8855414 12.3759781,36.4549839 C11.9578277,37.0241935 11.6514378,37.6646999 11.4562647,38.3765031 Z M31.9723511,39.2465106 C31.8566297,39.6575158 31.6807176,40.0239411 31.4433722,40.3459417 C31.2060268,40.6677871 30.9016562,40.9240828 30.5304934,41.1146737 C30.1588645,41.3053422 29.7240937,41.4007153 29.225482,41.4007153 C28.701862,41.4007153 28.2576937,41.2991289 27.8929771,41.0965776 C27.5276392,40.893871 27.2297148,40.6289544 26.9982719,40.3013618 C26.7668291,39.9736916 26.5996156,39.6009754 26.4962429,39.1836794 C26.3927927,38.7665386 26.3413005,38.3434953 26.3413005,37.9147824 C26.3413005,37.4616049 26.3956663,37.0236498 26.5055628,36.6007619 C26.614838,36.1771749 26.7883424,35.80508 27.0257655,35.4830794 C27.2629556,35.1612341 27.5698891,34.9020647 27.9473429,34.7055713 C28.3248743,34.5088449 28.7813137,34.4105982 29.3166612,34.4105982 C29.8520086,34.4105982 30.2991282,34.5116408 30.6579423,34.7142698 C31.016834,34.9168988 31.3061375,35.185155 31.5252315,35.5190385 C31.7439372,35.8524559 31.9022193,36.2337929 31.999767,36.6629718 C32.0968487,37.0922284 32.1458556,37.5329794 32.1458556,37.9860792 C32.1458556,38.4149474 32.0880725,38.8349618 31.9723511,39.2465106 Z M26.4040541,42.5345521 L26.4040541,41.2814212 L26.4353533,41.2814212 C26.6913384,41.7944787 27.0938004,42.1676609 27.6428946,42.4005017 C28.1919888,42.6332648 28.7954488,42.7496852 29.4544395,42.7496852 C30.1858921,42.7496852 30.8232142,42.6185084 31.3664058,42.3559217 C31.9091315,42.0934128 32.3601344,41.7388703 32.7199581,41.2919837 C33.0798594,40.8446311 33.3509116,40.3290884 33.5342796,39.7450447 C33.7171815,39.1607681 33.8088267,38.540843 33.8088267,37.8850366 C33.8088267,37.2292301 33.7201328,36.609305 33.5435994,36.0248731 C33.3666,35.4405964 33.0984991,34.9308009 32.7385978,34.4958748 C32.3787741,34.060871 31.9272275,33.7179007 31.3845795,33.4678181 C30.8413102,33.2177356 30.2103567,33.092306 29.4907093,33.092306 C29.2588005,33.092306 28.9994758,33.1161493 28.7131235,33.1636805 C28.4263829,33.2119107 28.142982,33.2890324 27.8625323,33.396366 C27.5821603,33.5036995 27.3163893,33.6504094 27.0663845,33.835253 C26.8163796,34.0201743 26.6060618,34.2495978 26.4353533,34.5246109 L26.4040541,34.5246109 L26.4040541,29.750458 L24.8351358,29.750458 L24.8351358,42.5345521 L26.4040541,42.5345521 Z M41.4303633,39.8122253 C41.2904103,40.1332163 41.1015281,40.4100933 40.8642603,40.6419245 C40.6264489,40.8737557 40.3460769,41.0582109 40.0234549,41.1952127 C39.700367,41.3322144 39.3439605,41.4007153 38.954158,41.4007153 C38.552162,41.4007153 38.189387,41.3322144 37.866765,41.1952127 C37.5437547,41.0582109 37.2667223,40.870882 37.0353572,40.6333036 C36.8039143,40.3952593 36.62109,40.1183045 36.4871949,39.8031384 C36.3529115,39.4878946 36.2739258,39.1516812 36.2494612,38.7947311 L41.6776498,38.7947311 C41.6530299,39.1516812 41.5707046,39.4908459 41.4303633,39.8122253 Z M41.8105353,33.8783573 C41.1015281,33.3542714 40.2097742,33.092306 39.1341087,33.092306 C38.3761723,33.092306 37.7187348,33.2114447 37.1628061,33.4495668 C36.6063336,33.6880772 36.1387104,34.0220383 35.7597033,34.4512948 C35.3807739,34.8805514 35.096441,35.3929875 34.9071705,35.98938 C34.7178999,36.5854618 34.6110324,37.235521 34.5864901,37.9387033 C34.5864901,38.6418857 34.696309,39.285654 34.9169563,39.8702413 C35.13706,40.4545956 35.4459352,40.9614399 35.8435043,41.3906188 C36.2410733,41.8198753 36.7121915,42.1532928 37.2564705,42.3918808 C37.8005941,42.6303912 38.3972972,42.7496852 39.0458808,42.7496852 C39.8901035,42.7496852 40.5901792,42.5792097 41.14704,42.2390354 C41.7040561,41.8984727 42.150632,41.4654105 42.4869231,40.9398489 C42.8232918,40.413899 43.0561327,39.8404955 43.1845912,39.2197161 C43.3130497,38.5983931 43.3650079,38.0072042 43.3405433,37.4457612 L36.2494612,37.4457612 C36.2371901,37.0409692 36.2857309,36.6572246 36.3955498,36.2941389 C36.5053686,35.9310533 36.681902,35.6095963 36.9260043,35.3297679 C37.1701843,35.0500949 37.4810011,34.8273506 37.8594645,34.6606807 C38.2373842,34.4938555 38.6825622,34.4105982 39.1949207,34.4105982 C39.8532901,34.4105982 40.3931421,34.5594827 40.8137778,34.8580284 C41.2344135,35.1564188 41.5118343,35.6099846 41.6461954,36.2194248 L43.1856008,36.2194248 C42.9776906,35.1827474 42.5193872,34.4024433 41.8105353,33.8783573 Z M45.8550376,42.5345521 L45.8550376,41.0662881 L45.8844727,41.0662881 C46.5344543,42.1882422 47.5654622,42.7496852 48.9769528,42.7496852 C49.6025474,42.7496852 50.1240704,42.6658843 50.5418325,42.4987484 C50.9589733,42.3314572 51.2963517,42.098694 51.5542007,41.800226 C51.8120498,41.5018356 51.9930101,41.1468271 52.0973924,40.73489 C52.2013087,40.3228751 52.2538105,39.8662804 52.2538105,39.364795 L52.2538105,33.2762177 L50.6849698,33.2762177 L50.6849698,39.5396198 C50.6849698,40.1120913 50.5132517,40.5652688 50.170592,40.8996182 C49.8274664,41.2335794 49.3563482,41.4007153 48.7566938,41.4007153 C48.2793624,41.4007153 47.8660272,41.3288748 47.5169213,41.1856598 C47.1678931,41.0423672 46.877114,40.8398159 46.6447391,40.5772292 C46.4125197,40.3147203 46.2379279,40.0076314 46.1217405,39.6560402 C46.0050871,39.303983 45.9471487,38.9193064 45.9471487,38.5015443 L45.9471487,33.2762177 L44.3783081,33.2762177 L44.3783081,42.5345521 L45.8550376,42.5345521 M63.0986933,33.3767943 C62.3903074,33.0850832 61.6749316,32.9389169 60.9533425,32.9389169 C59.8139914,32.9389169 58.7898181,33.1330804 57.8799682,33.5200869 C56.9699629,33.9075595 56.202862,34.4411983 55.5777333,35.1214694 C54.9526824,35.8011968 54.4736423,36.6002182 54.1402248,37.5181453 C53.8069627,38.4359171 53.6402151,39.425607 53.6402151,40.4862054 C53.6402151,41.5735984 53.8064967,42.5834813 54.1388269,43.5151552 C54.4713124,44.4465184 54.9491874,45.2588983 55.5727628,45.9525278 C56.1964934,46.6462349 56.96274,47.1898926 57.8720463,47.5846657 C58.7814302,47.9788952 59.8056812,48.1762429 60.9450323,48.1762429 C61.7087937,48.1762429 62.4480904,48.0637058 63.1633109,47.8389422 C63.8786867,47.6138679 64.5244743,47.2834017 65.1010621,46.8473883 C65.6774168,46.4114525 66.1530396,45.8740081 66.5280081,45.2354433 C66.9031319,44.5964126 67.1326331,43.8634844 67.2158903,43.0357268 L64.0911015,43.0357268 C63.8964721,43.8495823 63.5213483,44.4603428 62.9658078,44.8675424 C62.409879,45.274742 61.7363649,45.478303 60.9450323,45.478303 C60.2086869,45.478303 59.5836359,45.3389713 59.0698018,45.0601526 C58.5560453,44.7813339 58.1392152,44.4071421 57.8196222,43.9381985 C57.4999515,43.4687113 57.2675766,42.9351501 57.1221094,42.3368161 C56.9758655,41.7384043 56.9034037,41.1200326 56.9034037,40.4809242 C56.9034037,39.868688 56.9763315,39.2737712 57.1224201,38.6960184 C57.268664,38.1183434 57.5015048,37.5981406 57.8210978,37.1357986 C58.1406908,36.673612 58.5580646,36.3033035 59.0726754,36.0244847 C59.5871308,35.745666 60.2129585,35.6062567 60.9504689,35.6062567 C62.0349106,35.6062567 62.872221,35.8735032 63.4634099,36.4082294 C64.0546764,36.9427225 64.3988894,37.7179007 64.4963594,38.7333755 L61.2049007,38.7333755 L61.2049007,41.1247702 L67.4458575,41.1247702 L67.4458575,33.2651115 L65.3692406,33.2651115 L65.0366775,34.9139475 C64.4533328,34.181097 63.8070792,33.6685055 63.0986933,33.3767943 M72.7498592,47.808342 L72.7498592,35.9741576 L80,35.9741576 L80,33.2762177 L69.4866707,33.2762177 L69.4866707,47.808342 L72.7498592,47.808342" id="Combined-Shape" fill="#52636C" fill-rule="nonzero" transform="translate(40.000000, 40.474711) scale(1, -1) translate(-40.000000, -40.474711) "></path>
    </g>
</svg>