<?xml version="1.0" encoding="UTF-8" standalone="no"?>
<svg width="80px" height="80px" viewBox="0 0 80 80" version="1.1" xmlns="http://www.w3.org/2000/svg" xmlns:xlink="http://www.w3.org/1999/xlink">
    <!-- Generator: Sketch 50.2 (55047) - http://www.bohemiancoding.com/sketch -->
    <title>Icons/icon-globe</title>
    <desc>Created with Sketch.</desc>
    <defs>
        <path d="M40,0 C51.0256985,0 60.4486769,3.91021538 68.2692308,11.7307692 C76.0897846,19.5513231 80,28.9743015 80,40 C80,51.0256985 76.0897846,60.4486769 68.2692308,68.2692308 C60.4486769,76.0897822 51.0256985,80 40,80 C28.9743015,80 19.5513231,76.0897822 11.7307692,68.2692308 C3.91021785,60.4486769 0,51.0256985 0,40 C0,28.9743015 3.91021785,19.5513231 11.7307692,11.7307692 C19.5513231,3.91021538 28.9743015,0 40,0 Z M35.7692308,74.0384615 C36.0256369,73.5256382 36.3782031,72.8205169 36.8269292,71.9230769 C37.2756431,71.0256369 37.6282092,70.3205157 37.8846154,69.8076923 C38.1410215,69.2948689 38.2692308,68.7500025 38.2692308,68.1730769 C38.2692308,67.5961477 37.9487262,67.0512862 37.3076923,66.5384615 C35.2563938,64.7435815 33.7820554,63.39744 32.8846154,62.5 C32.6282092,62.2435938 32.2435938,61.5064123 31.7307692,60.2884677 C31.2179446,59.0705108 31.0256369,58.3333292 31.1538462,58.0769231 C31.79488,56.9230769 32.3076923,55.3846277 32.6923077,53.4615385 C33.0769231,51.9230646 32.2435938,50.5128246 30.1923077,49.2307692 C29.2948677,48.7179446 28.39744,48.0769231 27.5,47.3076923 C26.60256,46.5384615 25.6089846,45.7051323 24.5192369,44.8076923 C23.4294769,43.9102523 22.5641108,43.2051323 21.9230769,42.6923077 C19.6153723,41.0256369 18.3333292,39.8076923 18.0769231,39.0384615 C16.9230769,35.7051077 16.2820554,33.9102523 16.1538462,33.6538462 C15,31.9871754 14.2948677,30.2243692 14.0384615,28.3653908 C13.7820554,26.5064 13.8461538,24.5512862 14.2307692,22.5 C14.2307692,21.60256 14.10256,20.0000123 13.8461538,17.6923077 C8.46151138,23.8461908 5.76923077,31.2820062 5.76923077,40 C5.76923077,49.4872246 9.10253046,57.5640738 15.7692308,64.2307692 C21.28208,69.7436172 27.9486769,73.0128148 35.7692308,74.0384615 Z M64.2307692,64.2307692 C68.7179692,59.7435692 71.7307569,54.4872123 73.2692308,48.4615385 L69.6153846,48.0769231 C66.9230646,44.9999877 65.4487138,42.1153969 65.1923077,39.4230769 C65.0640985,38.2692308 65,36.4743754 65,34.0384615 C65,31.6025477 64.8717908,29.7435938 64.6153846,28.4615385 C64.3589785,27.3076923 63.4936,25.7051323 62.0192246,23.6538462 C60.5448615,21.60256 59.6794831,20.2564185 59.4230769,19.6153846 C59.0384615,18.7179446 58.4294892,17.3718031 57.59616,15.5769231 C56.7628185,13.7820431 56.0897477,12.4359015 55.5769231,11.5384615 C55.7051323,11.5384615 55.9294892,11.60256 56.2499938,11.7307692 C56.5705108,11.8589785 56.7948677,11.9871754 56.9230769,12.1153846 C58.2051323,11.8589785 59.10256,11.7307692 59.6153846,11.7307692 C55.5128,8.78203077 50.6410585,6.92307692 45,6.15384615 L45,7.69230769 L45.7692308,9.42307692 L43.0769231,11.9230769 L41.3461538,11.3461538 L39.4230769,9.42307692 L37.5,7.11538462 L34.8076923,6.15384615 C32.1153723,6.53846154 29.2307815,7.37179077 26.1538462,8.65384615 L26.1538462,10 C26.5384615,9.74359385 27.2435815,9.48717538 28.2692308,9.23076923 C29.29488,8.97436308 30.0640985,8.71794462 30.5769231,8.46153846 C30.8333292,8.33332923 31.8589662,8.91025231 33.6538462,10.1923077 C33.5256369,10.3205169 32.8205169,10.9294769 31.5384615,12.0192246 C30.2564062,13.1089846 29.5512862,13.8461538 29.4230769,14.2307692 C29.4230769,14.3589785 29.6474338,14.6474338 30.0961477,15.0961477 C30.5448738,15.5448738 30.7692308,15.89744 30.7692308,16.1538462 C30.7692308,16.5384615 30.7371815,17.0833354 30.6730831,17.7884554 C30.6089723,18.4935877 30.5769231,19.0384615 30.5769231,19.4230769 C33.2692431,16.7307569 34.6794831,15.3846154 34.8076923,15.3846154 C35.9615385,15.1282092 37.3717908,15.6730708 39.0384615,17.0192246 C40.7051323,18.3653908 41.6666708,19.4871754 41.9230769,20.3846154 C42.0512862,20.7692308 41.79488,21.3141046 41.1538462,22.0192246 C40.5128123,22.7243569 39.4871877,23.6538462 38.0769231,24.8076923 C36.6666585,25.9615385 35.8333292,26.6666708 35.5769231,26.9230769 C35.3205169,27.1794831 34.7435938,27.5961477 33.8461538,28.1730708 C32.9487138,28.7500062 32.3076923,29.2948677 31.9230769,29.8076923 C31.5384615,30.3205169 31.4743631,30.8974277 31.7307692,31.5384615 C33.0128246,34.1025723 33.3333415,35.6410215 32.6923077,36.1538462 C32.4359015,36.4102523 32.1153846,36.4423138 31.7307692,36.2499938 C31.3461538,36.0576862 31.0576985,35.8333292 30.8653785,35.5769231 C30.6730708,35.3205169 30.4166646,35 30.0961477,34.6153846 C29.7756431,34.2307692 29.5512862,33.9743631 29.4230769,33.8461538 C28.6538462,32.9487138 26.2179692,32.5 22.1153846,32.5 C22.1153846,36.6025846 23.0769108,39.3589662 25,40.7692308 C30.2564308,44.6154092 33.2692308,46.7307692 34.0384615,47.1153846 C34.8076923,47.5 36.3461415,47.5 38.6538462,47.1153846 C40.9615508,46.7307692 42.4358892,46.7948677 43.0769231,47.3076923 C47.3077169,50.2564308 50.3205046,52.1153846 52.1153846,52.8846154 C53.2692308,53.2692308 54.5512738,54.1346092 55.9615385,55.4807631 C57.3718031,56.8269292 57.7564185,57.9487138 57.1153846,58.8461538 C55.4487138,61.4102646 54.5512862,62.8846154 54.4230769,63.2692308 C53.3974277,65.4487262 52.1153969,67.0512738 50.5769231,68.0769231 C48.9102523,69.3589809 47.5641108,71.217936 46.5384615,73.6538462 C53.4615754,72.2435828 59.3589538,69.1025883 64.2307692,64.2307692 Z" id="path-1"></path>
    </defs>
    <g id="Icons/icon-globe" stroke="none" stroke-width="1" fill="none" fill-rule="evenodd">
        <rect id="Rectangle" fill="#D8D8D8" opacity="0" x="0" y="0" width="80" height="80"></rect>
        <mask id="mask-2" fill="white">
            <use xlink:href="#path-1"></use>
        </mask>
        <use id="Fill-1" fill="#FFFFFF" xlink:href="#path-1"></use>
        <g id="Mixin/Fill/Light" mask="url(#mask-2)" fill="#FFFFFF">
            <rect id="Rectangle-2" x="0" y="0" width="80" height="80"></rect>
        </g>
    </g>
</svg>