<?xml version="1.0" encoding="UTF-8" standalone="no"?>
<svg width="80px" height="80px" viewBox="0 0 80 80" version="1.1" xmlns="http://www.w3.org/2000/svg" xmlns:xlink="http://www.w3.org/1999/xlink">
    <!-- Generator: Sketch 50.2 (55047) - http://www.bohemiancoding.com/sketch -->
    <title>Icons/Programming Languages/icon-android</title>
    <desc>Created with Sketch.</desc>
    <defs></defs>
    <g id="Icons/Programming-Languages/icon-android" stroke="none" stroke-width="1" fill="none" fill-rule="evenodd">
        <rect id="Rectangle" fill="#D8D8D8" opacity="0" x="0" y="0" width="80" height="80"></rect>
        <path d="M10.9367633,25.875881 C8.21041069,25.8745357 6.00067268,28.0896551 6,30.8139897 L6.00336338,51.4893345 C6.00403605,54.2230865 8.21511942,56.4294611 10.9421447,56.4287885 C13.6705153,56.4287885 15.880926,54.2224138 15.8782353,51.4900072 L15.8782353,30.811299 C15.8768899,28.0876371 13.6644612,25.8745357 10.9367633,25.875881 Z M50.7537535,7.30870028 L54.1998685,1.01582382 C54.3835088,0.686885647 54.2631,0.268481675 53.9301258,0.0821506459 C53.5937882,-0.096108281 53.1787476,0.0249732543 53.0004886,0.355929451 L49.5193945,6.71472808 C46.5905667,5.41108355 43.3126205,4.68055829 39.8443071,4.68392166 C36.3854113,4.68055829 33.1088104,5.40906552 30.1920908,6.70531063 L26.7069606,0.362656203 C26.5260109,0.0283366302 26.1089523,-0.0927449051 25.7800141,0.0895500731 C25.4450219,0.270499701 25.3219223,0.689576348 25.5082534,1.01784184 L28.9557137,7.30668225 C22.1818745,10.7998845 17.6049925,17.4526422 17.6090259,25.0908691 L62.0849672,25.0854877 C62.0869852,17.4499515 57.5181752,10.8106473 50.7537535,7.30870028 Z M29.7286175,17.0335656 C28.7054786,17.0315476 27.870016,16.1987757 27.870016,15.1695826 C27.870016,14.1450983 28.7027879,13.302909 29.7306356,13.3035816 C30.7618466,13.302909 31.5959639,14.1450983 31.5973092,15.1695826 C31.5979819,16.1974303 30.7618466,17.0328929 29.7286175,17.0335656 Z M49.9808497,17.0295295 C48.953002,17.0308749 48.116194,16.1974303 48.116194,15.1655466 C48.1202301,14.1430803 48.9516566,13.3008909 49.9815224,13.2968549 C51.0046613,13.3002183 51.8434873,14.1430803 51.8428146,15.1662192 C51.84416,16.196085 51.0080247,17.0302022 49.9808497,17.0295295 Z M17.7906508,26.8088815 L17.7980503,58.8517645 C17.7960322,61.7664661 20.1537588,64.119484 23.0664424,64.119484 L26.6538192,64.1208293 L26.6578553,75.0612187 C26.6571826,77.7855533 28.8716293,80 31.5919278,80 C34.3202984,80 36.5307091,77.7835352 36.5313818,75.0578553 L36.5286911,64.1201566 L43.1942296,64.1181386 L43.1969203,75.0578553 C43.1969203,77.7801719 45.4120397,79.9993273 48.1330109,79.9939459 C50.8613815,79.9959639 53.0731376,77.7794992 53.0724649,75.0538193 L53.0691015,64.1167933 L56.6692592,64.1141026 C59.575216,64.1154479 61.9389966,61.7597394 61.940342,58.8443651 L61.9342879,26.8014821 L17.7906508,26.8088815 Z M73.7128306,30.8065902 C73.7121579,28.0788923 71.5024199,25.8684816 68.774722,25.869827 C66.0483694,25.8671363 63.8393041,28.0809103 63.8393041,30.8086083 L63.8433401,51.4852984 C63.8426674,54.2150144 66.0517328,56.421389 68.7801034,56.4220617 C71.5071286,56.421389 73.7155213,54.2150144 73.716194,51.4826077 L73.7128306,30.8065902 Z" id="Shape" fill="#52636C" fill-rule="nonzero"></path>
    </g>
</svg>