<?xml version="1.0" encoding="UTF-8" standalone="no"?>
<svg width="80px" height="80px" viewBox="0 0 80 80" version="1.1" xmlns="http://www.w3.org/2000/svg" xmlns:xlink="http://www.w3.org/1999/xlink">
    <!-- Generator: Sketch 50.2 (55047) - http://www.bohemiancoding.com/sketch -->
    <title>Icons/Programming Languages/icon-github</title>
    <desc>Created with Sketch.</desc>
    <defs>
        <path d="M39.9976228,1 L39.9976228,1.00066234 C62.0867916,1.00066234 79.9952457,18.9077918 79.995908,40.9976228 C79.995908,58.6636591 68.5486185,73.6511766 52.6656121,78.9459537 C50.6388398,79.3387236 49.9182096,78.09153 49.9182096,77.0271434 C49.9182096,75.7097414 49.9645737,71.4025191 49.9645737,66.0507805 C49.9645737,62.3197973 48.68625,59.8850212 47.2509508,58.6437887 C56.1574891,57.6529223 65.5144212,54.2709944 65.5144212,38.9085902 C65.5144212,34.5417569 63.9625495,30.9737104 61.3979539,28.1719957 C61.8132435,27.165233 63.1823083,23.0964545 61.005184,17.5877404 C61.005184,17.5877404 57.6510745,16.5127562 50.0168988,21.6876491 C46.8197649,20.8007706 43.395447,20.3563378 39.9976228,20.3411039 C36.5978116,20.3563378 33.1754808,20.8020953 29.9843079,21.6889737 C22.3408594,16.5140809 18.9827759,17.5890651 18.9827759,17.5890651 C16.8109503,23.0984415 18.1800151,27.1665577 18.5959671,28.1733204 C16.0373326,30.9750351 14.474201,34.5430816 14.474201,38.9099149 C14.474201,54.2358902 23.8139122,57.6661692 32.6979308,58.6762436 C31.5540629,59.6750582 30.5174947,61.4402046 30.1585043,64.0253328 C27.8760673,65.0466671 22.0865194,66.8138006 18.5191352,60.7003665 C18.5191352,60.7003665 16.4036088,56.8600966 12.3878178,56.5786005 C12.3878178,56.5786005 8.48462523,56.5269377 12.1142697,59.0094026 C12.1142697,59.0094026 14.7358269,60.2387128 16.5552855,64.8618732 C16.5552855,64.8618732 18.9032946,72.0006156 30.030672,69.5810734 C30.0478929,72.9232607 30.0849842,76.0740305 30.0849842,77.0278058 C30.0849842,78.0842443 29.3511071,79.3228273 27.3528156,78.9519148 C11.4605363,73.6624364 0,58.6702825 0,40.9976228 C0,18.9064671 17.9104411,1 39.9976228,1 Z M15.1491295,58.4272023 C15.0610377,58.6259055 14.7484114,58.6855164 14.4636035,58.5497359 C14.1721722,58.4199165 14.009898,58.1490179 14.1039508,57.9496523 C14.1900555,57.7443257 14.5033442,57.6880265 14.7927884,57.8251317 C15.0842197,57.9556134 15.2498057,58.2291615 15.1484671,58.4278646 L15.1491295,58.4272023 Z M16.7692226,60.2347388 C16.5791299,60.4115846 16.2062303,60.3294539 15.9532149,60.0492825 C15.6909268,59.771098 15.6419133,59.3981984 15.8359801,59.2187032 C16.0333585,59.0425198 16.3949983,59.1259751 16.6572865,59.4041595 C16.91825,59.686318 16.9699128,60.0559059 16.7698849,60.2354011 L16.7692226,60.2347388 Z M18.3469258,62.5377085 C18.1018585,62.7085932 17.7004781,62.5489683 17.4527615,62.1932896 C17.2076943,61.8369486 17.2076943,61.4097368 17.4593849,61.2395144 C17.7064392,61.0686297 18.1018585,61.2229558 18.3535492,61.5753228 C18.5972917,61.9363002 18.5972917,62.363512 18.3469258,62.5370461 L18.3469258,62.5377085 Z M20.5068292,64.7638463 C20.2882557,65.0056018 19.8206409,64.9406921 19.4788715,64.6115072 C19.1298162,64.2889457 19.0324517,63.8299414 19.2516875,63.5888482 C19.4742351,63.3464304 19.9438369,63.4139894 20.2875933,63.7411873 C20.6366486,64.0630864 20.7419613,64.5227531 20.5081539,64.7631839 L20.5068292,64.7638463 Z M23.4873767,66.0560792 C23.3900121,66.3693679 22.940943,66.5117718 22.4872374,66.3779783 C22.0348565,66.2408732 21.7387888,65.874597 21.831517,65.5579966 C21.9242451,65.2420586 22.376626,65.0943559 22.8329809,65.2367598 C23.2853618,65.3732027 23.5814295,65.7374918 23.4873767,66.0560792 Z M26.7613425,66.2951854 C26.7726024,66.6250326 26.3884429,66.8979183 25.9135424,66.9045417 C25.4346677,66.9158016 25.0471965,66.6482147 25.0425601,66.3236661 C25.0425601,65.9905072 25.4187715,65.7209332 25.8969838,65.7116604 C26.3718843,65.7030499 26.7620049,65.9679875 26.7620049,66.294523 L26.7613425,66.2951854 Z M29.8067997,65.7772324 C29.8637613,66.0984692 29.5332517,66.4289788 29.0610005,66.5170706 C28.5973598,66.6031753 28.1668363,66.4031474 28.1072253,66.08456 C28.0502637,65.7547127 28.3867344,65.4242031 28.8503752,65.3387608 C29.3232887,65.2572925 29.7471888,65.4513592 29.8067997,65.7778948 L29.8067997,65.7772324 Z" id="path-1"></path>
    </defs>
    <g id="Icons/Programming-Languages/icon-github" stroke="none" stroke-width="1" fill="none" fill-rule="evenodd">
        <rect id="Rectangle" fill="#D8D8D8" opacity="0" x="0" y="0" width="80" height="80"></rect>
        <mask id="mask-2" fill="white">
            <use xlink:href="#path-1"></use>
        </mask>
        <use id="Mask" fill="#52636C" fill-rule="nonzero" xlink:href="#path-1"></use>
    </g>
</svg>