<?xml version="1.0" encoding="UTF-8" standalone="no"?>
<svg width="80px" height="80px" viewBox="0 0 80 80" version="1.1" xmlns="http://www.w3.org/2000/svg" xmlns:xlink="http://www.w3.org/1999/xlink">
    <!-- Generator: Sketch 50.2 (55047) - http://www.bohemiancoding.com/sketch -->
    <title>Icons/Programming Languages/icon-atom</title>
    <desc>Created with Sketch.</desc>
    <defs>
        <path d="M23.755692,42.3722515 C23.2398187,43.4436808 22.7905096,44.3493394 22.363602,45.2665187 C20.2271438,49.8600958 18.4574293,54.5810412 17.5440903,59.5823246 C17.0358974,62.3639446 16.7581194,65.1660458 17.4845664,67.9585464 C18.1086068,70.3580616 19.4072508,71.5901413 21.6288345,71.6919079 C22.6010573,71.7373508 23.6180831,71.5312575 24.5647044,71.2643602 C27.0711065,70.5545543 29.2517275,69.1835856 31.3606639,67.6986896 C31.872697,67.3377063 32.3962509,67.1124117 33.0350122,67.349867 C34.1666054,67.7710143 34.5762319,69.2712713 33.6219302,69.9836374 C30.1778674,72.5495634 26.5328317,74.7621865 22.069823,74.8991553 C18.4145466,75.0118026 15.7686154,73.0513558 14.60246,69.5669704 C13.7320037,66.9671223 13.6808004,64.2930293 14.000181,61.6099758 C14.9487224,53.6235392 18.0311618,46.3673899 21.7325212,39.3333349 C22.0506217,38.7291359 22.069823,38.2491048 21.8445284,37.6033031 C20.9203086,34.9490514 20.060733,32.2717582 19.2165184,29.5906248 C19.0565081,29.0824319 18.8926575,28.9377826 18.3409418,29.0587504 C14.7144672,29.856242 11.1417562,30.8297449 7.9249081,32.7351482 C6.68258775,33.4711958 5.49083067,34.3851749 4.49748642,35.4284424 C2.84553957,37.1629546 2.81417754,39.0824387 4.16402485,41.0627268 C5.34170102,42.7914786 7.00132837,43.9736351 8.75248163,45.0418642 C9.30035707,45.3772459 9.87831445,45.6627043 10.4300301,45.9916856 C11.232002,46.4710766 11.5065798,47.4004167 11.0950331,48.1735867 C10.6822064,48.9473968 9.75606654,49.2539766 8.91505214,48.8213086 C6.45473301,47.5565868 4.1601846,46.0556897 2.32006558,43.9499535 C1.19231264,42.6596301 0.366019196,41.2092963 0.0927215197,39.4901451 C-0.247780504,37.3460064 0.366659238,35.4566042 1.65442253,33.7592144 C2.98250843,32.0099813 4.72662124,30.7619006 6.6307444,29.7250335 C10.0076028,27.8861946 13.6462382,26.7878835 17.3840799,25.9782311 C17.6400965,25.9225475 17.8935529,25.8534231 18.2404553,25.7670175 C18.0644439,24.769833 17.8756317,23.8020904 17.7245819,22.8273073 C17.1120623,18.8628909 16.8298041,14.8952743 17.803307,10.9436587 C18.188612,9.38067762 18.7934511,7.90346208 19.8456791,6.65858156 C21.9936581,4.11953734 24.7560767,3.55438078 27.8538771,4.31090971 C30.9158351,5.05911811 33.4868814,6.75458777 35.8844765,8.7278354 C36.5629204,9.2859515 36.5814816,10.2940167 36.0278458,10.9436587 C35.4626892,11.6061016 34.5839124,11.6925072 33.8145826,11.1683132 C32.6061845,10.3458601 31.4310685,9.46708321 30.1753072,8.72399515 C28.7364942,7.87338013 27.1914343,7.26982109 25.4697229,7.26150056 C24.0475509,7.2544601 22.9421994,7.83305752 22.131907,8.98513204 C21.1052806,10.4463466 20.7385369,12.1322156 20.5446043,13.8609674 C20.1343378,17.5175239 20.6214093,21.1119964 21.3337754,24.6891878 C21.4099403,25.0693724 21.5558697,25.2037811 21.9558956,25.1634584 C24.8424823,24.8754398 27.7297091,24.5880612 30.6207761,24.3467656 C31.2492967,24.2949223 31.6595632,24.0677076 32.0493485,23.5748757 C35.8063915,18.8289687 39.9250579,14.4344445 44.7701712,10.7676473 C47.4692258,8.72527523 50.3212503,6.94468006 53.6027425,5.97245718 C55.6585555,5.36377781 57.7393301,5.13848324 59.809864,5.86621031 C62.3956312,6.77506909 63.8408447,8.73999619 64.5858529,11.2758402 C65.375664,13.9678543 65.252136,16.7123518 64.9314753,19.4562093 C64.8489099,20.1589748 64.726022,20.85854 64.5935334,21.553625 C64.4136818,22.4996062 63.7121964,23.0007586 62.7674953,22.8906714 C61.9085597,22.790825 61.3478835,22.1002203 61.4381293,21.1414383 C61.5629374,19.8191128 61.8643969,18.5038277 61.8778378,17.1840623 C61.8938388,15.6223613 61.8605566,14.0203377 61.5354156,12.5034396 C60.8576118,9.3493156 58.6757106,8.11211557 55.4479819,8.82384161 C53.0267053,9.35699609 50.8793664,10.4962698 48.8350742,11.8435569 C44.6357625,14.6110959 41.0508907,18.0717998 37.7226754,21.8134818 C37.1037554,22.5092068 36.5085169,23.2266932 35.906878,23.9371391 C35.8703956,23.9793819 35.8729558,24.0549067 35.8268728,24.2347584 L36.6979691,24.2347584 C45.2687635,24.321164 53.7134697,25.3401099 61.9661635,27.7153035 C65.8960176,28.8468967 69.689543,30.3215521 73.1803288,32.4932125 C75.0377289,33.6484873 76.7427992,34.9855337 78.0913664,36.7302866 C80.8416243,40.2889168 80.6105694,44.2840552 77.4468447,47.4708213 C75.3103866,49.6232805 72.6791764,50.9827284 69.8764351,52.0387967 C69.0834238,52.336416 68.2104073,51.8992677 67.9070277,51.1395386 C67.5735662,50.3049246 67.9351895,49.4415087 68.7838844,49.0299621 C70.0780481,48.4027216 71.4240552,47.8593264 72.6478144,47.1143182 C73.6577997,46.4985984 74.6204219,45.735669 75.4300743,44.8748134 C77.1434651,43.0513354 77.2068292,41.0582465 75.7539353,39.0177945 C74.6658649,37.4893757 73.2040103,36.3718634 71.6320687,35.3951602 C67.7534178,32.9847643 63.4971425,31.4915477 59.114779,30.3260324 C54.5461635,29.1105937 49.9045833,28.2625389 45.1906784,27.9271572 C41.4342755,27.6602599 37.6644316,27.583455 33.9009882,27.4048834 C33.3575931,27.3786417 32.9863691,27.5392921 32.6842695,28.0052423 C30.4780468,31.4077023 28.2468625,34.7941614 26.0521606,38.2043019 C25.8921502,38.452638 25.8243058,38.8993869 25.9337529,39.1624439 C29.6491932,48.0039758 34.3547776,56.2566695 40.5907009,63.5832234 C43.2161507,66.6663028 46.0713754,69.5176873 49.5384796,71.6752668 C51.1654649,72.6871723 52.8634947,73.5313869 54.8329021,73.6625953 C56.6173375,73.7829231 57.9191817,73.0359948 58.804999,71.5216569 C59.639613,70.0950046 59.9743546,68.5166625 60.1241243,66.8947976 C60.6079956,61.6611791 59.5730487,56.6131726 58.2007999,51.6170095 C56.795269,46.4992384 54.8060204,41.5978014 52.5268329,36.8090117 C52.3431411,36.4237068 52.1927313,35.9660772 52.2125726,35.5513303 C52.249055,34.7967215 52.8442935,34.2597268 53.5886616,34.1432393 C54.2427839,34.0408326 54.9314685,34.4005359 55.2585296,35.1020213 C56.0739424,36.8480542 56.9015159,38.5908869 57.6484442,40.3670018 C59.9538733,45.8527966 61.8099934,51.4813207 62.7905368,57.3684214 C63.474741,61.4774872 63.8018022,65.6012739 62.8519808,69.7173802 C62.638847,70.6377597 62.3245866,71.5523789 61.9309612,72.4119545 C60.3135766,75.9475431 57.0340045,77.5450865 53.2340787,76.7143127 C50.1445989,76.037789 47.5370702,74.4236046 45.1042728,72.4951598 C40.6297434,68.9486905 36.9994286,64.6245708 33.7160163,59.9919511 C29.9730542,54.7148098 26.8118897,49.1029268 24.1633984,43.2011051 C24.064192,42.9815709 23.9502646,42.7684371 23.755692,42.3722515 Z M22.1376674,28.3233428 L24.1832397,34.8287236 C25.7993442,32.362004 27.3060017,30.0629753 28.9265865,27.5879353 L22.1376674,28.3233428 Z M40.298202,45.116749 C37.7271557,45.1135488 35.6348604,43.029574 35.6399807,40.4770889 C35.644461,37.8836412 37.7341962,35.8169475 40.3481252,35.8175876 C42.9172514,35.8188676 45.0050664,37.9009223 45.0069866,40.4610879 C45.0082666,43.0513354 42.9159713,45.1199492 40.298202,45.116749 Z" id="path-1"></path>
    </defs>
    <g id="Icons/Programming-Languages/icon-atom" stroke="none" stroke-width="1" fill="none" fill-rule="evenodd">
        <rect id="Rectangle" fill="#D8D8D8" opacity="0" x="0" y="0" width="80" height="80"></rect>
        <mask id="mask-2" fill="white">
            <use xlink:href="#path-1"></use>
        </mask>
        <use id="Mask" fill="#52636C" xlink:href="#path-1"></use>
    </g>
</svg>