<?xml version="1.0" encoding="UTF-8" standalone="no"?>
<svg width="80px" height="80px" viewBox="0 0 80 80" version="1.1" xmlns="http://www.w3.org/2000/svg" xmlns:xlink="http://www.w3.org/1999/xlink">
    <!-- Generator: Sketch 50.2 (55047) - http://www.bohemiancoding.com/sketch -->
    <title>Icons/Programming Languages/icon-angularjs</title>
    <desc>Created with Sketch.</desc>
    <defs>
        <path d="M32.686315,40 L47.47337,40 L39.6129831,23.5633754 L32.686315,40 Z M39.6390256,1.14241516e-14 L2,13.2461016 L7.94721631,62.5597866 L39.6790421,80 L71.57411,62.3241338 L77.5194207,13.0117191 L39.6390256,1.14241516e-14 Z M29.624734,46.9870105 L25.0101312,58.5320926 L16.3837139,58.5676628 L39.6364849,7.06767872 L39.5920221,6.97049576 L39.5513704,6.97049576 L39.5520056,6.88601645 L39.5920221,6.97049576 L39.6815829,6.97049576 L39.7597104,6.79645568 L39.7597104,6.97049576 L39.6809477,6.97049576 L39.6371201,7.06767872 L63.894115,58.7823546 L55.5897354,58.6000572 L50.4815956,46.7983612 L39.5736018,46.8504462 L29.624734,46.9870105 Z" id="path-1"></path>
    </defs>
    <g id="Icons/Programming-Languages/icon-angularjs" stroke="none" stroke-width="1" fill="none" fill-rule="evenodd">
        <rect id="Rectangle" fill="#D8D8D8" opacity="0" x="0" y="0" width="80" height="80"></rect>
        <mask id="mask-2" fill="white">
            <use xlink:href="#path-1"></use>
        </mask>
        <use id="Mask" fill="#52636C" fill-rule="nonzero" xlink:href="#path-1"></use>
    </g>
</svg>