<?xml version="1.0" encoding="UTF-8" standalone="no"?>
<svg width="80px" height="80px" viewBox="0 0 80 80" version="1.1" xmlns="http://www.w3.org/2000/svg" xmlns:xlink="http://www.w3.org/1999/xlink">
    <!-- Generator: Sketch 50.2 (55047) - http://www.bohemiancoding.com/sketch -->
    <title>Icons/Programming Languages/icon-swift</title>
    <desc>Created with Sketch.</desc>
    <defs></defs>
    <g id="Icons/Programming-Languages/icon-swift" stroke="none" stroke-width="1" fill="none" fill-rule="evenodd">
        <rect id="Rectangle" fill="#D8D8D8" opacity="0" x="0" y="0" width="80" height="80"></rect>
        <path d="M79.0730159,16.1142857 C78.7398221,14.43931 78.1734643,12.819313 77.3904762,11.3015873 C76.5721991,9.83152975 75.5552239,8.48126009 74.368254,7.28888889 C73.1440282,6.09104363 71.7220582,5.11370775 70.1650794,4.4 C68.6285396,3.62520829 66.9850803,3.08380826 65.2888889,2.79365079 C63.6063492,2.46984127 61.7587302,2.46984127 60.0761905,2.31111111 L18.5714286,2.31111111 C17.2767355,2.33219285 15.9849284,2.44037374 14.7047619,2.63492063 C13.4343536,2.78439614 12.1907831,3.10917744 11.0095238,3.6 C10.6730159,3.75873016 10.1714286,3.92380952 9.83492063,4.08253968 C8.71730478,4.68162223 7.65495216,5.37852555 6.66031746,6.16507937 C6.32380952,6.48888889 5.98730159,6.64761905 5.65079365,6.96507937 C4.41337172,8.11281569 3.39001827,9.47155389 2.62857143,10.9777778 C1.79703425,12.4741691 1.22795904,14.1019389 0.946031746,15.7904762 C0.695791527,17.4381867 0.528385286,19.0974156 0.444444444,20.7619048 L0.444444444,59.1047619 C0.444966714,60.7745088 0.613003902,62.4399914 0.946031746,64.0761905 C1.27922552,65.7511662 1.84558329,67.3711632 2.62857143,68.8888889 C3.44684852,70.3589464 4.46382377,71.7092161 5.65079365,72.9015873 C6.87501939,74.0994326 8.29698939,75.0767684 9.85396825,75.7904762 C11.390508,76.5652679 13.0339674,77.1066679 14.7301587,77.3968254 C16.4126984,77.7206349 18.2603175,77.7206349 19.9428571,77.8793651 L60.0825397,77.8793651 C61.831198,77.8780897 63.5760603,77.7165677 65.2952381,77.3968254 C66.9914295,77.1066679 68.6348888,76.5652679 70.1714286,75.7904762 C71.6951484,75.0194326 73.1087667,74.0478369 74.3746032,72.9015873 C75.6120251,71.753851 76.6353786,70.3951128 77.3968254,68.8888889 C78.2283626,67.3924976 78.7974378,65.7647277 79.0793651,64.0761905 C79.3296053,62.42848 79.4970115,60.769251 79.5809524,59.1047619 L79.5809524,21.0857143 C79.5783406,19.4157539 79.4081761,17.7502692 79.0730159,16.1142857 Z M67.1428571,64.0761905 C63.4920635,57.2380952 56.7428571,59.352381 53.3333333,60.7301587 C46.2793651,64.6222222 36.584127,65.0222222 26.8253968,61.0285714 C19.2166337,57.941334 12.7110402,52.6390873 8.15238095,45.8095238 C10.2709357,47.4312551 12.5854784,48.7794495 15.0412698,49.8222222 C25.1174603,54.3301587 35.1873016,54.0190476 42.2793651,49.8222222 C32.184127,42.4190476 23.6126984,32.7936508 17.2253968,24.9333333 C15.9649426,23.6049445 14.8398213,22.1544101 13.8666667,20.6031746 C21.5873016,27.3396825 33.8666667,35.8412698 38.2349206,38.247619 C31.9979376,31.8570615 26.2664354,24.9919955 21.0920635,17.7142857 C29.6933912,26.0729227 39.1581096,33.4944368 49.3269841,39.8539683 C49.7777778,40.0952381 50.1269841,40.2984127 50.4063492,40.4888889 C50.7044199,39.7611759 50.9609176,39.0171205 51.1746032,38.2603175 C53.5301587,30.0761905 50.8380952,20.7746032 44.9587302,13.0730159 C58.5714286,20.9269841 66.6666667,35.6825397 63.2761905,48.0380952 C63.1873016,48.3746032 63.0920635,48.6730159 62.9904762,49.0222222 L63.1111111,49.1619048 C69.8412698,57.1809524 67.9809524,65.6825397 67.1428571,64.0761905 Z" id="plain" fill="#52636C" fill-rule="nonzero"></path>
    </g>
</svg>