<?xml version="1.0" encoding="UTF-8" standalone="no"?>
<svg width="80px" height="80px" viewBox="0 0 80 80" version="1.1" xmlns="http://www.w3.org/2000/svg" xmlns:xlink="http://www.w3.org/1999/xlink">
    <!-- Generator: Sketch 50.2 (55047) - http://www.bohemiancoding.com/sketch -->
    <title>Icons/Programming Languages/icon-amazonwebservices</title>
    <desc>Created with Sketch.</desc>
    <defs></defs>
    <g id="Icons/Programming-Languages/icon-amazonwebservices" stroke="none" stroke-width="1" fill="none" fill-rule="evenodd">
        <rect id="Rectangle" fill="#D8D8D8" opacity="0" x="0" y="0" width="80" height="80"></rect>
        <path d="M23.3407272,49.1395184 L16.0111872,52.287363 L22.8000129,55.1896036 L30.6702671,52.287363 L23.3407272,49.1395184 Z M12.3219854,53.0743241 L12.0763815,67.2409104 L22.8000129,71.9633202 L22.8000129,57.2553766 L12.3219854,53.0743241 Z M34.3594689,53.0743241 L24.6684026,56.7641688 L24.6684026,70.6356447 L34.3594689,66.7001961 L34.3594689,53.0743241 Z M45.918925,9 L38.5405214,12.1478445 L45.3782107,15.0507281 L53.248465,12.1478445 L45.918925,9 Z M35.6871444,13.1810525 L35.6871444,27.3476388 L44.8368534,30.0042756 L45.1319639,17.1158582 L35.6871444,13.1810525 Z M56.1507056,13.9680136 L47.4928473,17.6572154 L47.4928473,31.5781978 L56.1507056,27.6427492 L56.1507056,13.9680136 Z M11.2643456,28.9389205 L3.93544861,32.087408 L10.7236313,34.9896486 L18.5938856,32.087408 L11.2643456,28.9389205 Z M0.245603883,32.8743691 L0,47.0409554 L10.7236313,51.7633652 L10.7236313,37.0554216 L0.245603883,32.8743691 Z M22.2824445,32.8743691 L12.592664,36.5635709 L12.592664,50.4344038 L22.2824445,46.4995982 L22.2824445,32.8743691 Z M34.8757514,28.4142797 L27.5462115,31.5627672 L34.3343942,34.4650079 L42.2046485,31.5627672 L34.8757514,28.4142797 Z M23.8576526,32.3497284 L23.6114058,46.5169576 L34.3350371,51.2393673 L34.3350371,36.5307809 L23.8576526,32.3497284 Z M45.8944932,32.3497284 L36.2040698,36.0389301 L36.2040698,49.911049 L45.8944932,45.9756003 L45.8944932,32.3497284 Z M68.9812582,9 L61.6523612,12.1478445 L68.4411869,15.0507281 L76.3114412,12.1478445 L68.9812582,9 Z M57.9631594,12.9354486 L57.7175555,27.1020349 L68.4411869,31.8238017 L68.4411869,17.1158582 L57.9631594,12.9354486 Z M80,12.9354486 L70.3102196,16.6246504 L70.3102196,30.4961263 L80,26.5613206 L80,12.9354486 Z" id="Shape" fill="#52636C" fill-rule="nonzero"></path>
    </g>
</svg>