<?xml version="1.0" encoding="UTF-8" standalone="no"?>
<svg width="80px" height="80px" viewBox="0 0 80 80" version="1.1" xmlns="http://www.w3.org/2000/svg" xmlns:xlink="http://www.w3.org/1999/xlink">
    <!-- Generator: Sketch 50.2 (55047) - http://www.bohemiancoding.com/sketch -->
    <title>Icons/Programming Languages/icon-linux</title>
    <desc>Created with Sketch.</desc>
    <defs></defs>
    <g id="Icons/Programming-Languages/icon-linux" stroke="none" stroke-width="1" fill="none" fill-rule="evenodd">
        <rect id="Rectangle" fill="#D8D8D8" opacity="0" x="0" y="0" width="80" height="80"></rect>
        <path d="M71.6922581,66.1903226 C70.5341935,65.2367742 69.3509677,64.3058065 68.2677419,63.2709677 C67.0612903,62.1193548 66.3032258,60.7264516 66.4683871,58.9625806 C66.5632258,57.9477419 66.3290323,57.0748387 65.1051613,56.7354839 C65.3929032,55.9909677 65.6625806,55.4916129 65.7716129,54.9593548 C65.8929032,54.3658065 65.8864516,53.7419355 65.9032258,53.1309677 C66.0735484,46.7051613 63.7522581,41.0722581 60.3141935,35.8180645 C58.7309677,33.4 57.0774194,31.0251613 55.3896774,28.6787097 C52.7496774,25.0090323 51.8032258,20.8864516 51.7554839,16.4329032 C51.7322581,14.3903226 51.4909677,12.3167742 51.0580645,10.32 C50.2109677,6.42322581 48.1232258,3.37612903 44.3367742,1.74193548 C41.4354839,0.489032258 38.4322581,0.240645161 35.3683871,1.04258065 C30.916129,2.20709677 28.223871,5.51612903 28.2741935,10.1316129 C28.3219355,14.5735484 28.5432258,19.0212903 28.8690323,23.4529032 C29.0548387,25.9645161 28.6677419,28.1316129 27.0012903,30.123871 C25.3987097,32.0393548 23.9651613,34.1058065 22.5767742,36.1864516 C21.783871,37.376129 21.0819355,38.6722581 20.5916129,40.0129032 C19.256129,43.6664516 18.0283871,47.3503226 15.8974194,50.6580645 C15.1077419,51.883871 15.0180645,53.2554839 15.5787097,54.6574194 C15.723871,55.0206452 15.8129032,55.5793548 15.636129,55.8716129 C14.1174194,58.3922581 12.4032258,60.6103226 9.14193548,61.0941935 C6.57677419,61.4754839 6.45032258,61.9419355 6.5283871,64.5864516 C6.59290323,66.7393548 6.56774194,68.9122581 6.34774194,71.0516129 C6.11354839,73.3451613 6.35290323,73.9683871 8.5683871,74.5180645 C13.6806452,75.7877419 18.8348387,76.8709677 23.7245161,78.94 C25.8064516,79.8206452 27.8954839,79.5148387 29.5722581,77.8025806 C31.3225806,76.0148387 33.5341935,75.3154839 35.9232258,75.3129032 C39.9780645,75.3096774 44.0341935,75.5051613 48.0909677,75.5509677 C49.1890323,75.563871 49.8193548,75.9722581 50.2612903,76.9696774 C50.8032258,78.1909677 51.7193548,79.0883871 53.1290323,79.2445161 C55.8341935,79.5425806 58.2987097,79.1412903 60.3483871,77.0774194 C62.876129,74.5303226 65.7909677,72.5187097 69.1322581,71.1245161 C70.0883871,70.7251613 70.9890323,70.0974194 71.7793548,69.416129 C73.2187097,68.176129 73.1425806,67.3864516 71.6922581,66.1903226 Z M38.5329032,14.2709677 C39.0219355,12.5929032 40.1696774,11.503871 41.9154839,11.1735484 C43.383871,10.896129 44.6270968,11.6174194 45.5535484,13.2677419 C46.5509677,15.0470968 46.8787097,16.9064516 46.0270968,18.8535484 C45.3283871,20.4496774 45.0006452,20.6 43.3670968,20.0587097 C43.0612903,19.9574194 42.7625806,19.8374194 42.2206452,19.6380645 C42.6774194,19.2548387 42.9651613,18.9703226 43.2941935,18.7464516 C44.0258065,18.2483871 44.2309677,17.5477419 44.1625806,16.7154839 C44.0729032,15.6225806 43.2135484,14.6548387 42.3322581,14.6670968 C41.5419355,14.6780645 40.8729032,15.42 40.783871,16.5477419 C40.7283871,17.2503226 40.8451613,17.9664516 40.8954839,18.8632258 C38.6722581,18.2032258 37.856129,16.5890323 38.5329032,14.2709677 Z M30.3070968,12.8187097 C31.1290323,11.5748387 32.3696774,11.3258065 33.5980645,12.1580645 C34.9070968,13.0458065 35.8864516,15.5490323 35.3806452,17.0458065 C35.1967742,17.5903226 34.6535484,18.0135484 34.2735484,18.4916129 L33.883871,18.2503226 C33.7354839,17.4419355 33.7058065,16.5825806 33.3954839,15.8419355 C33.1993548,15.3722581 32.5845161,15.0780645 32.1574194,14.7051613 C31.756129,15.1819355 31.0651613,15.636129 31.023871,16.1425806 C30.9670968,16.8419355 31.3316129,17.6135484 31.6490323,18.2916129 C31.8496774,18.7180645 32.2948387,19.0303226 32.7541935,19.5277419 L31.5141935,20.5019355 C29.5670968,18.76 28.9883871,14.8116129 30.3070968,12.8187097 Z M54.6064516,54.2419355 C54.4754839,55.9219355 54.283871,55.9922581 52.5948387,56.2406452 C51.3954839,56.416129 51.0729032,56.7283871 51.0122581,58.1529032 C50.9425806,59.8180645 50.9470968,61.4890323 51.0045161,63.1548387 C51.043871,64.2967742 50.6580645,65.1922581 49.8722581,65.9890323 C45.5083871,70.4122581 40.2948387,72.5083871 34.0580645,71.7477419 C31.3677419,71.4193548 29.6090323,69.7819355 28.1890323,67.4645161 C28.8212903,67.2303226 29.2890323,67.0729032 29.7451613,66.8877419 C31.7593548,66.0683871 32.136129,64.336129 30.5277419,62.8380645 C29.3122581,61.7045161 27.956129,60.72 26.6522581,59.6819355 C25.3916129,58.6787097 24.1141935,57.696129 22.8516129,56.6954839 C21.7754839,55.8419355 21.3645161,54.7419355 21.3387097,53.3483871 C21.2780645,50.0051613 21.9658065,46.8774194 23.3632258,43.8341935 C24.6096774,41.1187097 25.5754839,38.2748387 26.7432258,35.5212903 C27.3464516,34.1006452 27.9729032,32.6470968 28.8580645,31.4 C29.7090323,30.203871 30.2348387,29.0329032 30.1406452,27.5677419 C30.0864516,26.7445161 30.1303226,25.9148387 30.1303226,25.0883871 L30.5864516,24.8612903 C31.3225806,25.4967742 32.0716129,26.1187097 32.7948387,26.7703226 C35.4045161,29.1225806 37.8864516,29.2303226 40.7425806,27.2025806 C41.9606452,26.3374194 43.2780645,25.6090323 44.5664516,24.8464516 C44.8870968,24.6567742 45.2709677,24.5735484 45.8141935,24.3703226 C47.2019355,27.6387097 48.563871,30.8432258 49.9270968,34.0477419 C50.6187097,35.676129 51.1735484,37.3812903 52.0329032,38.9167742 C53.756129,41.9974194 54.6729032,45.2477419 54.6587097,48.7696774 C54.6509677,50.5954839 54.7470968,52.4277419 54.6064516,54.2419355 Z" id="Shape" fill="#52636C" fill-rule="nonzero"></path>
    </g>
</svg>