<?xml version="1.0" encoding="UTF-8" standalone="no"?>
<svg width="80px" height="80px" viewBox="0 0 80 80" version="1.1" xmlns="http://www.w3.org/2000/svg" xmlns:xlink="http://www.w3.org/1999/xlink">
    <!-- Generator: Sketch 50.2 (55047) - http://www.bohemiancoding.com/sketch -->
    <title>Icons/Programming Languages/icon-c</title>
    <desc>Created with Sketch.</desc>
    <defs></defs>
    <g id="Icons/Programming-Languages/icon-c" stroke="none" stroke-width="1" fill="none" fill-rule="evenodd">
        <rect id="Rectangle" fill="#D8D8D8" opacity="0" x="0" y="0" width="80" height="80"></rect>
        <path d="M74.5230396,20.2425222 L74.7170574,20.113177 C74.3290218,19.4017785 73.7469685,18.7550525 73.1649151,18.4316896 L41.9280517,0.452708165 C41.410671,0.12934519 40.6992724,0 39.9232013,0 C39.1471302,0 38.4357316,0.194017785 37.9183508,0.452708165 L6.87550525,18.4963622 C5.77607114,19.1430881 5,20.759903 5,21.9886823 L5,58.0113177 C5,58.7227162 5.12934519,59.4987874 5.58205335,60.2101859 L5.45270816,60.2748585 C5.77607114,60.7922393 6.2287793,61.2449475 6.68148747,61.5036378 L37.8536783,79.5472918 C38.371059,79.8706548 39.0824576,80 39.8585287,80 C40.6345998,80 41.3459984,79.8059822 41.8633791,79.5472918 L72.9062247,61.5036378 C74.0056589,60.8569119 74.78173,59.240097 74.78173,58.0113177 L74.78173,21.9240097 C74.8464026,21.4066289 74.78173,20.8245756 74.5230396,20.2425222 Z M39.9232013,55.8124495 C45.8084074,55.8124495 50.982215,52.5788197 53.698464,47.7930477 L62.0412288,52.7081649 C57.6434923,60.3395311 49.3654002,65.5133387 39.9232013,65.5133387 C25.8245756,65.5133387 14.3775263,54.0662894 14.3775263,39.9676637 C14.3775263,25.869038 25.8245756,14.4219887 39.9232013,14.4219887 C49.4300728,14.4219887 57.7081649,19.6604689 62.1059014,27.3565077 L53.698464,32.2069523 C50.982215,27.3565077 45.8084074,24.1228779 39.9232013,24.1228779 C31.192401,24.1228779 24.0784155,31.2368634 24.0784155,39.9676637 C24.0784155,48.698464 31.192401,55.8124495 39.9232013,55.8124495 Z" id="Shape" fill="#52636C" fill-rule="nonzero"></path>
    </g>
</svg>