<?xml version="1.0" encoding="UTF-8" standalone="no"?>
<svg width="80px" height="80px" viewBox="0 0 80 80" version="1.1" xmlns="http://www.w3.org/2000/svg" xmlns:xlink="http://www.w3.org/1999/xlink">
    <!-- Generator: Sketch 50.2 (55047) - http://www.bohemiancoding.com/sketch -->
    <title>Icons/Programming Languages/icon-c++</title>
    <desc>Created with Sketch.</desc>
    <defs></defs>
    <g id="Icons/Programming-Languages/icon-c++" stroke="none" stroke-width="1" fill="none" fill-rule="evenodd">
        <rect id="Rectangle" fill="#D8D8D8" opacity="0" x="0" y="0" width="80" height="80"></rect>
        <path d="M19.9989792,51.7484984 C24.0942169,58.8141666 31.7405181,63.5768116 40.4782609,63.5768116 C48.8942609,63.5768116 56.7430725,59.0478841 60.9615072,51.7572174 L50.7254493,45.8342029 C48.613913,49.4838261 44.6874203,51.7507246 40.4782609,51.7507246 C36.1093322,51.7507246 32.2862234,49.3693724 30.2386234,45.8365661 L40.4782609,39.9246377 L50.7223599,34.0102417 C50.7231581,34.0116199 50.723956,34.0129983 50.7247536,34.0143768 L54.9101697,31.5924239 L75.054029,19.9624348 C75.6110145,20.9268406 75.9565217,22.0132174 75.9565217,22.9889855 L75.9565217,56.860058 C75.9565217,57.8358261 75.6105507,58.9224348 75.0537971,59.8868406 C74.4970435,60.8514783 73.7290435,61.693913 72.884058,62.1817971 L43.5507246,79.1172174 C41.8609855,80.0929855 39.0955362,80.0929855 37.4057971,79.1172174 L8.07246377,62.1817971 C7.22771014,61.6941449 6.45947826,60.8514783 5.90272464,59.8870725 L19.9989792,51.7484984 Z M54.9839713,31.5497175 L60.9608116,28.0911304 C56.7423768,20.8011594 48.8937971,16.2724638 40.4782609,16.2724638 C27.4364058,16.2724638 16.826087,26.8827826 16.826087,39.9246377 C16.826087,44.2287075 17.981689,48.2679514 19.9989195,51.7483955 L5.90272464,59.8868406 C5.34573913,58.9224348 5,57.8358261 5,56.860058 L5,22.9889855 C5,21.0376812 6.38249275,18.6427826 8.07246377,17.6672464 L37.4057971,0.731826087 C39.0955362,-0.243942029 41.8609855,-0.243942029 43.5507246,0.731826087 L72.884058,17.6672464 C73.7288116,18.1551304 74.4970435,18.9975652 75.054029,19.9622029 L54.9839713,31.5497175 Z M50.7223301,34.0101902 L40.4782609,39.9246377 L30.2385935,45.8365147 C29.2299733,44.0962816 28.6521739,42.0766548 28.6521739,39.9246377 C28.6521739,33.4035942 33.9572174,28.0985507 40.4782609,28.0985507 C44.6853467,28.0985507 48.6104454,30.3637154 50.7223301,34.0101902 Z M64.1304348,38.6105507 L61.5022609,38.6105507 L61.5022609,35.9826087 L58.8745507,35.9826087 L58.8745507,38.6105507 L56.2463768,38.6105507 L56.2463768,41.2384928 L58.8745507,41.2384928 L58.8745507,43.8666667 L61.5022609,43.8666667 L61.5022609,41.2384928 L64.1304348,41.2384928 L64.1304348,38.6105507 Z M73.9855072,38.6105507 L71.3573333,38.6105507 L71.3573333,35.9826087 L68.7296232,35.9826087 L68.7296232,38.6105507 L66.1014493,38.6105507 L66.1014493,41.2384928 L68.7296232,41.2384928 L68.7296232,43.8666667 L71.3573333,43.8666667 L71.3573333,41.2384928 L73.9855072,41.2384928 L73.9855072,38.6105507 Z" id="Combined-Shape" fill="#52636C" fill-rule="nonzero"></path>
    </g>
</svg>