<?xml version="1.0" encoding="UTF-8" standalone="no"?>
<svg width="80px" height="80px" viewBox="0 0 80 80" version="1.1" xmlns="http://www.w3.org/2000/svg" xmlns:xlink="http://www.w3.org/1999/xlink">
    <!-- Generator: Sketch 50.2 (55047) - http://www.bohemiancoding.com/sketch -->
    <title>Icons/Programming Languages/icon-linkedin</title>
    <desc>Created with Sketch.</desc>
    <defs></defs>
    <g id="Icons/Programming-Languages/icon-linkedin" stroke="none" stroke-width="1" fill="none" fill-rule="evenodd">
        <rect id="Rectangle" fill="#D8D8D8" opacity="0" x="0" y="0" width="80" height="80"></rect>
        <path d="M74.0977868,0.00030890574 L5.90159364,0.00030890574 C2.67982417,-0.0324793962 0.0396101507,2.5490632 0,5.77075602 L0,74.2423568 C0.0467679345,77.4589039 2.68487416,80.0325231 5.90159364,79.9996893 L74.0977868,79.9996893 C77.3191749,80.0252313 79.9561918,77.4438847 79.9993804,74.2226849 L79.9993804,5.75108404 C79.9419436,2.54017526 77.3091065,-0.0253782919 74.0977868,0.00030890574 Z M23.7178491,68.196502 L11.8425312,68.196502 L11.8425312,29.9869619 L23.7178491,29.9869619 L23.7178491,68.196502 Z M17.8162555,24.7804448 C15.0308598,24.7830976 12.518257,23.1072572 11.4504936,20.5346482 C10.3827302,17.9620392 10.9701784,14.9995202 12.9388129,13.0290091 C14.9074473,11.0584979 17.8694052,10.4682272 20.4430305,11.5335388 C23.0166557,12.5988505 24.6948894,15.1098554 24.6948907,17.8952523 C24.6914214,19.7235988 23.9608837,21.4754881 22.6643601,22.7646311 C21.3678366,24.053774 19.6118053,24.7742986 17.7834688,24.7673302 L17.8162555,24.7804448 Z M68.1961931,68.196502 L56.3208753,68.196502 L56.3208753,49.6064821 C56.3208753,45.1802868 56.2421873,39.4819703 50.1504313,39.4819703 C44.0586752,39.4819703 43.0226176,44.3081625 43.0226176,49.3179597 L43.0226176,68.196502 L31.1669717,68.196502 L31.1669717,29.9869619 L42.5504901,29.9869619 L42.5504901,35.2328229 L42.7078659,35.2328229 C44.2947389,32.2295675 48.1635614,29.0623789 53.9405658,29.0623789 C65.9667022,29.0361496 68.1961931,36.9508424 68.1961931,47.213058 L68.1961931,68.196502 Z" id="plain" fill="#52636C" fill-rule="nonzero"></path>
    </g>
</svg>