<?xml version="1.0" encoding="UTF-8" standalone="no"?>
<svg width="80px" height="80px" viewBox="0 0 80 80" version="1.1" xmlns="http://www.w3.org/2000/svg" xmlns:xlink="http://www.w3.org/1999/xlink">
    <!-- Generator: Sketch 50.2 (55047) - http://www.bohemiancoding.com/sketch -->
    <title>Icons/Programming Languages/icon-python</title>
    <desc>Created with Sketch.</desc>
    <defs>
        <path d="M29.9722731,38.692299 L49.0349993,38.692299 C54.3414964,38.692299 58.5215805,34.202337 58.5215805,28.8736123 L58.5215805,10.7006413 C58.5215805,5.52816313 54.1859036,1.64226702 49.0062343,0.779315663 C45.7283266,0.233433555 42.3412425,-0.0149918355 39.0777174,0.000698189213 C35.8154998,0.0157344628 32.7938625,0.29357865 30.0526845,0.779315663 C21.9755905,2.20514665 20.6040209,5.19278885 20.6040209,10.7006413 L20.6040209,17.7722661 L39.5628007,17.7722661 L39.5628007,20.3872702 L13.2663193,20.3872702 C7.7198956,20.3872702 2.86252547,23.7266305 1.34386183,30.0699767 C-0.408844674,37.3396881 -0.486641046,41.7845414 1.34386183,49.3752446 C2.70039521,55.0249609 5.93973156,58.9585809 11.486809,58.9585809 L17.9890167,58.9585809 L17.9890167,50.4284375 C17.9890167,44.1282388 23.4988304,38.692299 29.9722731,38.692299 Z M28.7706787,13.1240963 C26.7924281,13.1240963 25.1894306,11.5034475 25.1894306,9.49904687 C25.1894306,7.48614746 26.7917743,5.85046238 28.7706787,5.85046238 C30.741738,5.85046238 32.3525806,7.48614746 32.3525806,9.49904687 C32.3519268,11.5034475 30.7410843,13.1240963 28.7706787,13.1240963 Z M77.6640643,30.0699767 C76.2924946,24.547088 73.6742218,20.3872702 68.119953,20.3872702 L61.1365846,20.3872702 L61.1365846,28.8736123 C61.1365846,35.4438102 55.387498,40.6535521 49.0349993,40.6535521 L29.9722731,40.6535521 C24.7501099,40.6535521 20.6040209,45.4429321 20.6040209,50.6729403 L20.6040209,68.8472189 C20.6040209,74.0183895 25.0135715,77.0609468 30.0585682,78.5449617 C36.1005352,80.3212032 41.8221642,80.6421949 49.0506893,78.5449617 C53.8551056,77.1531257 58.5215805,74.3537638 58.5215805,68.8472189 L58.5215805,61.573585 L39.5628007,61.573585 L39.5628007,58.9585809 L68.119953,58.9585809 C73.6663768,58.9585809 75.7341913,55.1825149 77.6640643,49.3745908 C79.6560437,43.3960377 79.5704023,37.7384763 77.6640643,30.0699767 Z M50.2359399,66.4224563 C52.2148443,66.4224563 53.8178418,68.0431051 53.8178418,70.0488133 C53.8178418,72.0597515 52.215498,73.6960903 50.2359399,73.6960903 C48.2648806,73.6960903 46.6546918,72.0604052 46.6546918,70.0488133 C46.6546918,68.0431051 48.2648806,66.4224563 50.2359399,66.4224563 Z" id="path-1"></path>
    </defs>
    <g id="Icons/Programming-Languages/icon-python" stroke="none" stroke-width="1" fill="none" fill-rule="evenodd">
        <rect id="Rectangle" fill="#D8D8D8" opacity="0" x="0" y="0" width="80" height="80"></rect>
        <mask id="mask-2" fill="white">
            <use xlink:href="#path-1"></use>
        </mask>
        <use id="Mask" fill="#52636C" fill-rule="nonzero" xlink:href="#path-1"></use>
    </g>
</svg>