<?xml version="1.0" encoding="UTF-8" standalone="no"?>
<svg width="80px" height="80px" viewBox="0 0 80 80" version="1.1" xmlns="http://www.w3.org/2000/svg" xmlns:xlink="http://www.w3.org/1999/xlink">
    <!-- Generator: Sketch 50.2 (55047) - http://www.bohemiancoding.com/sketch -->
    <title>Icons/Link</title>
    <desc>Created with Sketch.</desc>
    <defs>
        <path d="M31.4146341,58.7254044 L28.2146391,62.0050104 C26.8097511,63.3585049 25.1187125,64.0352426 23.1414634,64.0352426 C21.1642143,64.0352426 19.4731757,63.3585049 18.0682877,62.0050104 C17.3918663,61.3282596 16.8715464,60.5604245 16.5073171,59.7014751 C16.1430878,58.8425257 15.9609756,57.9185189 15.9609756,56.9294347 C15.9609756,55.9923944 16.1430878,55.0944146 16.5073171,54.2354651 C16.8715464,53.3765157 17.3918663,52.6086806 18.0682877,51.9319399 L29.9317023,40.1409705 C31.1804928,38.9436507 32.8195022,37.7723679 34.8487805,36.627112 C36.8780588,35.4818461 38.7512095,35.7681526 40.4682927,37.4860514 C41.2487805,38.2148561 42.1853559,38.5792534 43.2780488,38.5792534 C44.3707417,38.5792534 45.2812925,38.1888291 46.0097611,37.4079606 C46.7902489,36.627102 47.1804878,35.6900817 47.1804878,34.5968697 C47.1804878,33.5036677 46.7902489,32.5666474 46.0097611,31.7857789 C43.1479558,28.974678 39.7528613,27.8034052 35.8243877,28.2719203 C31.8959141,28.7404355 28.0845762,30.8227017 24.3902439,34.5187889 L12.4487805,46.3097582 C11.0438954,47.7673675 9.95122351,49.4071455 9.17073171,51.2291622 C8.39024001,53.0511788 8,54.9512463 8,56.9294347 C8,58.9596769 8.39024001,60.8857714 9.17073171,62.7077831 C9.95122351,64.5297957 11.0438954,66.1695817 12.4487805,67.627192 C13.9056987,69.0848024 15.5707227,70.1779933 17.4439024,70.906798 C19.3170782,71.635603 21.2162535,72 23.1414634,72 C25.0666733,72 26.9528314,71.635603 28.7999975,70.906798 C30.6471636,70.1779933 32.2991803,69.0848024 33.7560976,67.627192 L37.0341463,64.3475861 C37.8146341,63.6187814 38.204883,62.7077881 38.204883,61.6145861 C38.204883,60.5213741 37.8146341,59.5843538 37.0341463,58.8034952 C36.2536585,58.0226267 35.3170832,57.6322024 34.2243902,57.6322024 C33.1316973,57.6322024 32.195122,57.9965997 31.4146341,58.7254044 Z M67.5512245,12.8109207 C64.4292533,9.73953039 60.9431077,8.13878282 57.0926779,8.00863806 C53.2422581,7.8784933 49.8861955,9.21896134 47.0243902,12.0300622 L42.9658537,16.0905267 C42.1853659,16.8193314 41.795117,17.7303247 41.795117,18.8235367 C41.795117,19.9167387 42.1853659,20.853759 42.9658537,21.6346275 C43.7463415,22.4154861 44.6829168,22.8059104 45.7756098,22.8059104 C46.8683027,22.8059104 47.804878,22.441513 48.5853659,21.7127084 L52.5658587,17.6522438 C54.0748051,16.1946345 55.7008072,15.6480385 57.4439049,16.0124459 C59.1870027,16.3768432 60.6829218,17.1837187 61.9317123,18.4331024 C62.6081317,19.1098532 63.1284536,19.8776883 63.4926879,20.7366377 C63.8569122,21.5955871 64.0390244,22.5195939 64.0390244,23.5086881 C64.0390244,24.4457184 63.8569122,25.3436982 63.4926879,26.2026476 C63.1284536,27.0615971 62.6081317,27.8294321 61.9317123,28.5061829 L49.2877999,41.0780008 C46.3739654,43.9411655 44.162605,45.1254519 42.6536585,44.6309098 C41.1447121,44.1363577 40.1040684,43.5767482 39.5317073,42.9520614 C38.7512195,42.2232567 37.8146441,41.8588594 36.7219512,41.8588594 C35.6292583,41.8588594 34.7187075,42.2492837 33.9902389,43.0301422 C33.2097511,43.8110108 32.8195122,44.7480311 32.8195122,45.8412331 C32.8195122,46.934445 33.2097511,47.8454384 33.9902389,48.574243 C35.2910586,49.9277345 36.6959266,50.9298322 38.204883,51.580546 C39.7138295,52.2312698 41.2747851,52.5566267 42.8878099,52.5566267 C44.8130198,52.5566267 46.7902289,52.0750981 48.8195172,51.1120309 C50.8487955,50.1489736 52.8520192,48.6783708 54.8292683,46.7001825 L67.5512245,34.1283646 C68.9561026,32.6707453 70.0487755,31.0309673 70.8292633,29.2089506 C71.6097611,27.386934 72,25.4868664 72,23.5086881 C72,21.4784358 71.6097611,19.5523413 70.8292633,17.7303247 C70.0487755,15.9083181 68.9561026,14.2685301 67.5512245,12.8109207 Z" id="path-1"></path>
    </defs>
    <g id="Icons/Link" stroke="none" stroke-width="1" fill="none" fill-rule="evenodd">
        <rect id="Rectangle" fill="#D8D8D8" opacity="0" x="0" y="0" width="80" height="80"></rect>
        <mask id="mask-2" fill="white">
            <use xlink:href="#path-1"></use>
        </mask>
        <use id="Fill-1" fill="#000000" xlink:href="#path-1"></use>
        <g id="Mixin/Fill/Shade-4" mask="url(#mask-2)" fill="#52636C">
            <rect id="Rectangle-2" x="0" y="0" width="80" height="80"></rect>
        </g>
    </g>
</svg>