<?xml version="1.0" encoding="UTF-8" standalone="no"?>
<svg width="80px" height="80px" viewBox="0 0 80 80" version="1.1" xmlns="http://www.w3.org/2000/svg" xmlns:xlink="http://www.w3.org/1999/xlink">
    <!-- Generator: Sketch 50.2 (55047) - http://www.bohemiancoding.com/sketch -->
    <title>Icons/Programming Languages/icon-twitter</title>
    <desc>Created with Sketch.</desc>
    <defs></defs>
    <g id="Icons/Programming-Languages/icon-twitter" stroke="none" stroke-width="1" fill="none" fill-rule="evenodd">
        <rect id="Rectangle" fill="#D8D8D8" opacity="0" x="0" y="0" width="80" height="80"></rect>
        <path d="M25.007874,72.6299213 C55.0173228,72.6299213 71.4267717,47.7669291 71.4267717,26.2110236 C71.4267717,25.5055118 71.4267717,24.8 71.3826772,24.1007874 C74.5754423,21.7904505 77.331316,18.9300585 79.5212598,15.6535433 C76.5449777,16.9736534 73.3875589,17.8399795 70.1543307,18.223622 C73.558721,16.1827645 76.1061136,12.9750197 77.3228346,9.19685039 C74.119712,11.0982655 70.6151984,12.4382892 66.9606299,13.1590551 C61.9040489,7.78234934 53.8691983,6.46658291 47.3617724,9.94959671 C40.8543466,13.4326105 37.4928087,20.8481434 39.1622047,28.0377953 C26.0439284,27.3805774 13.8215324,21.1846606 5.53700787,10.992126 C1.20233975,18.4447256 3.40903508,27.9831662 10.576378,32.7748031 C7.99789722,32.6876617 5.47754586,31.9857643 3.22519685,30.7275591 C3.22519685,30.7968504 3.22519685,30.8661417 3.22519685,30.9354331 C3.22427473,38.6923762 8.68312123,45.378344 16.2834646,46.9291339 C13.8802692,47.5837623 11.3589607,47.6785808 8.91338583,47.2062992 C11.0480574,53.8562193 17.1745795,58.4131366 24.1574803,58.5448819 C18.3747747,63.073496 11.2378296,65.5271675 3.89291339,65.511811 C2.59195393,65.512537 1.29207581,65.4368159 0,65.2850394 C7.45996639,70.076808 16.1415296,72.6200468 25.007874,72.6110236" id="original" fill="#52636C" fill-rule="nonzero"></path>
    </g>
</svg>