<?xml version="1.0" encoding="UTF-8" standalone="no"?>
<svg width="80px" height="80px" viewBox="0 0 80 80" version="1.1" xmlns="http://www.w3.org/2000/svg" xmlns:xlink="http://www.w3.org/1999/xlink">
    <!-- Generator: Sketch 50.2 (55047) - http://www.bohemiancoding.com/sketch -->
    <title>Icons/Programming Languages/icon-docker</title>
    <desc>Created with Sketch.</desc>
    <defs></defs>
    <g id="Icons/Programming-Languages/icon-docker" stroke="none" stroke-width="1" fill="none" fill-rule="evenodd">
        <rect id="Rectangle" fill="#D8D8D8" opacity="0" x="0" y="0" width="80" height="80"></rect>
        <path d="M78.9745611,31.9923879 C76.2212776,30.3916416 72.5715761,30.1995521 69.4981433,31.09597 C69.1139642,27.7664178 66.9369493,24.8850745 64.3757553,22.8361193 L63.3512777,22.0037313 L62.4548598,23.0282089 C60.7260538,25.0131342 60.213815,28.3426864 60.4699344,30.9038804 C60.662024,32.7607461 61.2382926,34.6816416 62.3908299,36.218358 C61.494412,36.7305968 60.5339643,37.4349252 59.6375464,37.7550744 C57.8447106,38.3953729 55.8597852,39.0356714 53.9388897,39.0356714 L49.6488898,39.0356714 L49.6488898,30.0074625 L41.3250092,30.0074625 L41.3250092,14 L31.7205317,14 L31.7205317,21.683582 L15.7130692,21.683582 L15.7130692,30.0074625 L7.38918864,30.0074625 L7.38918864,38.9716416 L0.217845415,38.9716416 L0.089785715,39.9320893 C-0.230363536,44.0299997 0.281875265,47.9998504 2.01068122,51.7776116 L2.71500957,53.1862683 L2.77903942,53.314328 C7.83739759,61.8943279 16.6735169,65.4799995 26.3420243,65.4799995 C45.0387405,65.4799995 60.4699344,57.0920892 67.513218,39.4838804 C72.2514269,39.7399998 77.1176955,38.3313431 79.4227701,33.7852237 L79.9990387,32.6326864 L78.9745611,31.9923879 Z M16.9936662,23.6044775 L23.3966512,23.6044775 L23.3966512,30.647761 L16.9936662,30.647761 L16.9936662,23.6044775 Z M25.3815765,51.9056713 C25.3815765,52.9941788 24.4851586,53.8905967 23.3966512,53.8905967 C22.3081437,53.8905967 21.4117258,52.9941788 21.4117258,51.9056713 C21.4117258,50.8171639 22.3081437,49.9207459 23.3966512,49.9207459 C24.4851586,49.9847758 25.3815765,50.8171639 25.3815765,51.9056713 Z M16.9936662,31.928358 L23.3966512,31.928358 L23.3966512,38.9716416 L16.9936662,38.9716416 L16.9936662,31.928358 Z M8.66978564,31.928358 L15.7130692,31.928358 L15.7130692,38.9716416 L8.66978564,38.9716416 L8.66978564,31.928358 Z M26.4060541,64.0713428 C16.2893378,64.007313 10.8468005,60.6137309 6.36471103,56.1316414 C7.70933789,56.1956713 8.98993489,56.2597011 10.1424722,56.2597011 C11.1669498,56.2597011 12.1914274,56.2597011 13.1518752,56.1956713 C15.6490393,56.0676116 17.8260542,55.7474623 19.61889,55.2352235 C21.0915766,58.6288056 23.7808303,61.7662682 28.583069,64.0713428 L26.4060541,64.0713428 Z M31.7205317,38.9716416 L24.6772482,38.9716416 L24.6772482,31.928358 L31.7205317,31.928358 L31.7205317,38.9716416 Z M31.7205317,30.647761 L24.6772482,30.647761 L24.6772482,23.6044775 L31.7205317,23.6044775 L31.7205317,30.647761 Z M40.0444122,38.9716416 L33.0011287,38.9716416 L33.0011287,31.928358 L40.0444122,31.928358 L40.0444122,38.9716416 Z M40.0444122,30.647761 L33.0011287,30.647761 L33.0011287,23.6044775 L40.0444122,23.6044775 L40.0444122,30.647761 Z M40.0444122,22.3238805 L33.0011287,22.3238805 L33.0011287,15.280597 L40.0444122,15.280597 L40.0444122,22.3238805 Z M48.3682927,38.9716416 L41.3250092,38.9716416 L41.3250092,31.928358 L48.3682927,31.928358 L48.3682927,38.9716416 Z M23.90889,50.6250743 C23.7808303,50.5610445 23.5887407,50.4970146 23.3966512,50.4970146 C22.628293,50.4970146 21.9879945,51.1373131 21.9879945,51.9056713 C21.9879945,52.6740295 22.628293,53.314328 23.3966512,53.314328 C24.1650094,53.314328 24.8053079,52.6740295 24.8053079,51.9056713 C24.8053079,51.7135818 24.741278,51.5214922 24.6772482,51.3934325 C24.5491885,51.5855221 24.4211288,51.7135818 24.1650094,51.7135818 C23.8448601,51.7135818 23.5887407,51.4574624 23.5887407,51.1373131 C23.6527706,50.8811937 23.7808303,50.6891042 23.90889,50.6250743 Z" id="Shape" fill="#52636C" fill-rule="nonzero"></path>
    </g>
</svg>