<?xml version="1.0" encoding="UTF-8" standalone="no"?>
<svg width="80px" height="80px" viewBox="0 0 80 80" version="1.1" xmlns="http://www.w3.org/2000/svg" xmlns:xlink="http://www.w3.org/1999/xlink">
    <!-- Generator: Sketch 50.2 (55047) - http://www.bohemiancoding.com/sketch -->
    <title>Icons/Programming Languages/icon-postqresql</title>
    <desc>Created with Sketch.</desc>
    <defs></defs>
    <g id="Icons/Programming-Languages/icon-postqresql" stroke="none" stroke-width="1" fill="none" fill-rule="evenodd">
        <rect id="Rectangle" fill="#D8D8D8" opacity="0" x="0" y="0" width="80" height="80"></rect>
        <path d="M78.390669,47.9216563 C79.7512332,52.0407127 73.972698,55.0912938 72.1693308,55.9282184 C69.8872333,56.9882512 66.1712802,57.6327858 63.132196,57.4942862 L62.9915407,57.4847654 L62.4454468,57.4368028 C62.4291001,57.575482 62.4129329,57.7145202 62.3971248,57.8505049 C62.3735926,58.0520565 62.3491619,58.2634884 62.3227554,58.4848001 C62.1188684,66.3158576 60.9921906,71.2856711 58.6747048,74.5854073 C56.22339,78.0757376 52.8347339,79.0500839 49.8507981,79.6894089 C49.0138732,79.8688654 48.0594665,80 47.0592526,80 C45.0649322,80.0001795 42.8873828,79.4788755 41.0868899,77.7796973 C39.3485509,76.1390804 38.6650356,74.0445231 38.2565428,72.7931776 C38.1925923,72.5968352 38.132055,72.4116304 38.087146,72.289837 C37.2680051,70.0792349 36.9915453,66.9196147 36.8284355,62.8558862 C36.8043643,62.2550031 36.7864008,61.6124448 36.7680778,60.9569526 C36.7569404,60.5529509 36.743827,60.0849986 36.7269412,59.5953104 C33.9732989,60.802645 30.7455967,61.0182084 27.2996366,60.1566736 C26.3436131,59.9175777 25.3861525,59.514115 24.6032982,59.0202952 C23.9866073,58.6312034 23.5222479,58.2121125 23.1741131,57.7906859 C20.4269376,60.0781726 17.8152078,59.7429716 16.3775798,59.2638819 C13.8129147,58.4084545 11.5284819,56.0259405 9.39350642,51.980355 C7.88797595,49.1273739 6.43256396,45.413756 5.06768862,40.9420738 C2.69289887,33.1618529 1.18449422,24.9584094 1.04976712,22.262071 C0.624927651,13.7697726 2.92175531,7.68944862 7.87611999,4.1897774 C11.9675126,1.29943195 17.5610227,0.411490515 24.5014445,1.55092254 C27.4523273,2.0354012 30.0072921,2.79436388 31.5997666,3.33255375 C34.4755614,1.62601044 37.841224,0.795732215 41.6500491,0.85644923 C43.6822726,0.889322641 45.6191096,1.06680315 47.4203211,1.38439984 C49.354643,0.784774409 53.0632311,-0.0492761773 57.2871954,0.00227939442 C65.2060951,0.0969476387 71.7698198,3.18525212 76.2686274,8.93360852 C77.9685242,11.1055891 79.4232176,15.9070834 76.7010115,26.4466948 C75.0174615,32.9649718 72.0929852,39.8895855 68.49667,45.961826 C69.44946,45.9348805 70.7550554,45.7967404 72.5147709,45.4336957 C73.524326,45.2254973 74.3775979,45.1780734 75.1225489,45.2892683 C76.7026283,45.5254896 77.9243338,46.5093567 78.390669,47.9216563 Z M76.2012639,48.5110425 C75.8567217,47.4691526 74.7478277,47.1337721 72.9052998,47.5144211 C67.434661,48.6434343 65.4755493,47.8612983 64.8320928,47.3875981 C69.0844394,40.9095595 72.5824938,33.0793998 74.4695714,25.7734186 C75.3636204,22.3127284 75.8574402,19.0988583 75.8976787,16.4794041 C75.9422286,13.6037888 75.4527199,11.4910882 74.4426261,10.2004026 C70.3704543,4.99706219 64.3941396,2.20605553 57.1596537,2.1293509 C52.1862474,2.07348406 47.9841989,3.34638572 47.169549,3.70422092 C45.454024,3.27758508 43.5838322,3.0156756 41.5480158,2.9822633 C37.8142788,2.92190554 34.5871154,3.81577496 31.915028,5.63764467 C30.7543988,5.20579941 27.7548346,4.17612506 24.0868443,3.5853018 C17.7449701,2.56407035 12.7056375,3.3377632 9.10932205,5.88554252 C4.81817401,8.92570452 2.83714669,14.360057 3.22102911,22.0373462 C3.3501875,24.6205139 4.82176674,32.5663593 7.14446198,40.1761051 C10.2016894,50.1917182 13.5247783,55.8617529 17.0215754,57.027951 C17.4307865,57.1644743 17.9028703,57.2600407 18.4230965,57.2600407 C19.6986927,57.2600407 21.2624253,56.6850255 22.8895695,54.7289677 C25.5921951,51.4775535 28.115544,48.7530121 29.0456999,47.7630375 C30.4202756,48.5009827 31.9301175,48.9128885 33.4748085,48.9542046 C33.4775029,48.9946229 33.4816345,49.0350409 33.4852274,49.0752794 C33.1753552,49.4428151 32.9211701,49.7649025 32.7045286,50.0399254 C31.6344363,51.3983339 31.4116874,51.6810813 27.9669849,52.3904645 C26.9872494,52.5925552 24.3845014,53.1289484 24.3465982,54.9531534 C24.3051022,56.9462165 27.4226874,57.7833209 27.7780077,57.872061 C29.0158803,58.1819335 30.208305,58.3348039 31.3455814,58.3348039 C34.1116186,58.3346241 36.5455085,57.4256654 38.4907883,55.6668478 C38.4307898,62.7723552 38.7271895,69.774033 39.5802816,71.9073917 C40.2788864,73.6536347 41.9859687,77.9217894 47.3781065,77.9214299 C48.1690446,77.9214299 49.0401002,77.8294564 49.9980998,77.6241324 C55.6253813,76.4175163 58.0689719,73.9304539 59.0143968,68.4472404 C59.5202519,65.5168362 60.3884335,58.5189308 60.7965668,54.7654337 C61.6582815,55.0341693 62.7677141,55.1572202 63.9669651,55.1570406 C66.4682186,55.1570406 69.3542528,54.6256768 71.1642664,53.7855185 C73.1973884,52.8413511 76.8666362,50.5240449 76.2012639,48.5110425 Z M62.8002284,23.1464197 C62.781546,24.2545951 62.629035,25.2605574 62.4673627,26.3107103 C62.2934748,27.4400827 62.1134793,28.6077176 62.0682111,30.0252263 C62.0234816,31.4046523 62.1957527,32.838867 62.3624551,34.2256582 C62.6990933,37.026904 63.0445333,39.9109623 61.7071425,42.7567581 C61.4993033,42.3876056 61.2986498,41.9848615 61.1147025,41.538825 C60.9485391,41.135901 60.5876501,40.488672 60.088082,39.5928267 C58.1437004,36.1060893 53.5906429,27.9409082 55.9214216,24.6090172 C56.6155357,23.6170664 58.3774069,22.5976313 62.8002284,23.1464197 Z M57.4393469,4.37336551 C63.9213375,4.51653553 69.0486917,6.94144375 72.6791379,11.5803674 C75.4634983,15.1386 72.3974685,31.3292051 63.5214673,45.2968129 C63.433805,45.1854384 63.3445259,45.0729863 63.2521927,44.9576598 C63.2153673,44.9114935 63.1778236,44.8646083 63.1399201,44.8171844 C65.4335146,41.0291971 64.9849629,37.2814486 64.5858117,33.9585393 C64.4218037,32.5949212 64.2669574,31.3069302 64.3062977,30.0972604 C64.3470752,28.8146584 64.5166515,27.7151056 64.6804799,26.6516597 C64.8822111,25.3410344 65.0871761,23.9851409 65.0305905,22.3865589 C65.0728051,22.2189583 65.0898705,22.0208197 65.0677754,21.785676 C64.9233477,20.2526612 63.1733326,15.6652932 59.606118,11.5126445 C57.6550899,9.2416845 54.8094741,6.70001277 50.9243037,4.98574511 C52.5954587,4.63940664 54.8807896,4.31642086 57.4393469,4.37336551 Z M21.1677571,53.2972675 C19.3751681,55.4525419 18.1371158,55.0395584 17.7300603,54.9039332 C15.0773735,54.0190454 11.9996675,48.4127813 9.28608403,39.5224092 C6.93806006,31.829851 5.56581963,24.0945393 5.4573194,21.9254329 C5.114394,15.0654881 6.77728571,10.2844723 10.4000077,7.71531624 C16.2956657,3.53428514 25.9888317,6.03679618 29.8837025,7.30610512 C29.827656,7.36125339 29.7694539,7.41298862 29.7139463,7.4690351 C23.3226722,13.9239004 23.4742851,24.9521222 23.4899134,25.626117 C23.4893745,25.8862301 23.5111105,26.2544842 23.5411097,26.7610581 C23.651047,28.6158012 23.8556526,32.0680485 23.3090198,35.9776495 C22.8008292,39.6106106 23.9206809,43.1665081 26.3809774,45.7335084 C26.6357014,45.9991902 26.9015629,46.2487047 27.1762266,46.4834892 C26.0809851,47.6563337 23.7009859,50.2497405 21.1677571,53.2972675 Z M27.9977026,44.1841468 C26.0146993,42.1152774 25.1141834,39.2373268 25.5266279,36.2877013 C26.1039785,32.157687 25.8907504,28.5608326 25.7763222,26.6284866 C25.7603346,26.3581342 25.7461433,26.1211942 25.7377004,25.9341929 C26.671449,25.1064296 30.9983447,22.787866 34.0839547,23.4949138 C35.492302,23.8175403 36.3500646,24.7762584 36.706822,26.4256774 C38.5531221,34.964322 36.9513065,38.523273 35.6642136,41.3830805 C35.398891,41.9722868 35.1482988,42.529159 34.9341725,43.1054315 L34.7683683,43.5507497 C34.3483789,44.6768886 33.9576704,45.7238081 33.7155209,46.7180941 C31.6076706,46.7116273 29.5569443,45.8112909 27.9977026,44.1841468 Z M28.3212273,55.6997212 C27.7057939,55.5459529 27.1521554,55.278834 26.8273732,55.0573424 C27.0986238,54.9296212 27.5814857,54.7560928 28.4187697,54.5836421 C32.4711813,53.7492321 33.0968542,53.1605645 34.4635258,51.4252794 C34.7769909,51.027565 35.1321316,50.5764985 35.6239752,50.0271712 C35.6241548,50.0268121 35.6243346,50.0266325 35.6245142,50.0264527 C36.3572501,49.2062343 36.6922712,49.3452726 37.2999803,49.597302 C37.7925425,49.8011892 38.2721713,50.4184188 38.4667171,51.0978026 C38.5586908,51.418633 38.6621612,52.0277789 38.3239063,52.5014795 C35.4689493,56.4987429 31.3089356,56.447367 28.3212273,55.6997212 Z M49.5287104,75.4347269 C44.571292,76.4969155 42.8160672,73.9674592 41.6593903,71.075856 C40.9128225,69.2088977 40.5460053,60.7906094 40.8062982,51.4942597 C40.8097112,51.3704905 40.7921069,51.2510325 40.7579762,51.1387599 C40.7283362,50.9219389 40.6827086,50.7026033 40.6194766,50.4818303 C40.2321811,49.1291701 39.2889119,47.9976421 38.157204,47.5286122 C37.7075749,47.3423296 36.8821467,47.0004821 35.8903755,47.2541282 C36.1019869,46.3827132 36.4688041,45.3988464 36.8663386,44.3332448 L37.0332209,43.8848727 C37.2211202,43.3795563 37.4566232,42.8560969 37.7059579,42.302099 C39.0528698,39.3097201 40.8975534,35.2113216 38.8955086,25.9523362 C38.1455278,22.4844605 35.6414,20.7910307 31.8451495,21.1842542 C29.5691596,21.4197572 27.4871768,22.3380571 26.4487002,22.8645706 C26.2254125,22.9777414 26.0211662,23.0869602 25.8303927,23.1934844 C26.1201457,19.6992022 27.2153873,13.169249 31.3118099,9.03779747 C33.8908458,6.4366662 37.3258479,5.15208819 41.5110108,5.22124809 C49.7572076,5.35633448 55.0451567,9.5882026 58.0294517,13.1146396 C60.600943,16.1535441 61.9934825,19.2145439 62.5492767,20.8654 C58.3700419,20.4405606 55.5276592,21.2656294 54.0866181,23.325517 C50.9519675,27.8063608 55.8016044,36.5036241 58.1323834,40.6833976 C58.5597378,41.4495456 58.9287104,42.111505 59.0447551,42.3928152 C59.8037179,44.2322893 60.7863275,45.4602818 61.5037943,46.3568457 C61.7236689,46.6315095 61.9370766,46.8979098 62.0992882,47.1305386 C60.8335718,47.4955592 58.5599173,48.3385918 58.7670377,52.553035 C58.5999762,54.6678914 57.4115036,64.5687168 56.807926,68.0667712 C56.0110601,72.6880904 54.3104447,74.4095436 49.5287104,75.4347269 Z M70.2213563,51.7545526 C68.9270779,52.3554354 66.7610255,52.8061424 64.7032935,52.9027865 C62.4305372,53.0093108 61.2736804,52.6482422 61.0015318,52.4262119 C60.8736307,49.7999316 61.8513901,49.5254477 62.8859149,49.2349758 C63.0484853,49.1891687 63.2071041,49.1447986 63.3601541,49.091267 C63.4553614,49.1686903 63.5595504,49.2455746 63.6736192,49.3208422 C65.5003391,50.5265598 68.7585793,50.6566163 73.3581626,49.7072393 C73.3750484,49.7036467 73.3919341,49.7004133 73.4086404,49.6970002 C72.7883569,50.2770452 71.7267074,51.0555883 70.2213563,51.7545526 Z M33.7473166,24.6596746 C32.9332057,24.5463241 32.1956196,24.6512316 31.8225152,24.9336197 C31.6125208,25.0925976 31.5476721,25.2767247 31.5302473,25.4035478 C31.4833621,25.7392877 31.7186856,26.110416 31.863113,26.3019081 C32.2719649,26.8438703 32.8694347,27.2164357 33.4607967,27.2985294 C33.5464832,27.3103854 33.631631,27.3161337 33.716419,27.3161337 C34.7026214,27.3161337 35.5990058,26.5483689 35.6780459,25.9816169 C35.7768457,25.2718745 34.7464528,24.7987129 33.7473166,24.6596746 M60.7232754,24.6821291 L60.7230955,24.6821291 C60.6454929,24.125796 59.6553385,23.9671772 58.7158414,24.0977727 C57.7777814,24.2285478 56.8679246,24.6519502 56.9439107,25.2095408 C57.004987,25.6431824 57.7876616,26.3834629 58.7145841,26.3832833 C58.7927257,26.3832833 58.8717657,26.3780738 58.9513444,26.3669364 C59.5700111,26.28125 60.0239519,25.8883857 60.2395151,25.6618646 C60.5680696,25.3169632 60.7579451,24.9321826 60.7232754,24.6821291" id="Combined-Shape" fill="#52636C" fill-rule="nonzero"></path>
    </g>
</svg>