<?xml version="1.0" encoding="UTF-8" standalone="no"?>
<svg width="80px" height="80px" viewBox="0 0 80 80" version="1.1" xmlns="http://www.w3.org/2000/svg" xmlns:xlink="http://www.w3.org/1999/xlink">
    <!-- Generator: Sketch 50.2 (55047) - http://www.bohemiancoding.com/sketch -->
    <title>Icons/Programming Languages/icon-clojure</title>
    <desc>Created with Sketch.</desc>
    <defs></defs>
    <g id="Icons/Programming-Languages/icon-clojure" stroke="none" stroke-width="1" fill="none" fill-rule="evenodd">
        <rect id="Rectangle" fill="#D8D8D8" opacity="0" x="0" y="0" width="80" height="80"></rect>
        <path d="M38.3426914,40.7192195 C40.8516388,49.6506018 42.4373654,54.9624057 45.2796404,58.5868249 C45.7077105,59.1279637 46.1779652,59.6082459 46.6706954,60.0587914 C44.5742583,60.7558749 42.3343243,61.1410689 40.0027598,61.145564 C37.4416004,61.1410689 34.9890144,60.6822247 32.7183064,59.8478684 C32.6716267,59.2600499 32.6422358,58.6829505 32.6422358,58.133859 C32.6394696,56.7455702 32.7840038,55.4935169 33.0174023,54.4831608 C33.6671145,51.6464182 35.4457839,47.2184166 37.0519113,43.5794748 C37.5062604,42.5490637 37.9450496,41.5808922 38.3426914,40.7192195 Z M27.8490952,22.7119208 C29.0389089,23.3993226 30.1159997,24.204288 31.0036055,25.1358073 C32.7445854,26.9189718 34.695451,30.8566637 36.0470876,34.2473387 C36.4167217,35.1626065 36.7469373,36.0339609 37.0366972,36.8299362 C32.1574585,46.7536943 28.9037106,51.7045085 27.6056693,57.1114007 C22.3139203,53.2698344 18.8686128,47.0417253 18.8551276,39.9979317 C18.8686128,32.8472935 22.420765,26.5375814 27.8490952,22.7119208 Z M58.4239519,64.2540861 C59.4740722,64.3823688 60.608216,64.4470289 61.8163557,64.4470289 C65.0396753,64.4370014 68.8037879,63.9705502 72.7179671,62.9951173 C65.4812307,73.2750242 53.5312279,79.996555 40.0037971,79.996555 C17.9156554,79.996555 0.00759427189,62.0884939 0.00759427189,39.9986233 C0.00759427189,38.5449829 -0.0653643677,37.3185171 0.240992764,35.696484 C3.51756181,24.5531756 11.387759,20.427036 18.8433712,20.3568436 C20.3557934,20.3540774 21.8364043,20.5542814 23.2561587,20.8972907 C17.9478126,25.55385 14.5924067,32.3815339 14.5924067,39.9979317 C14.5941356,54.0350357 25.9698052,65.4089764 40.0027598,65.4089764 C44.0583612,65.4089764 47.8885168,64.4549817 51.2895651,62.7662139 C53.3116605,63.4795489 55.62317,63.9031239 58.4239519,64.2540861 Z M50.9081747,56.5038731 C50.0807338,56.1459954 48.8656785,54.926445 47.7609257,53.2293787 C46.0783819,50.6969186 44.5355314,47.2218744 43.4525624,44.4148685 C42.3619863,41.6040591 41.7267967,39.4854924 41.7229931,39.4792684 C41.7223016,39.4765022 41.7205727,39.473736 41.7195354,39.4702783 C39.7219901,31.8186113 37.6570185,24.823572 33.3628321,19.9287734 C35.4509706,19.2368766 37.6812228,18.8537573 40.0027598,18.8492622 C51.6827119,18.8724292 61.1324117,28.3207459 61.1521209,39.9979317 L61.1541956,39.9979317 C61.1407103,47.0023069 57.7348212,53.199642 52.4939013,57.0470865 C51.714869,56.8261359 51.1550584,56.6262776 50.9081747,56.5038731 Z M40.0037971,0 C62.0936677,0 80,17.90979 80,39.9986233 C80,41.7281926 79.8775955,43.4276794 79.6649435,45.0995041 C78.5774794,49.4279224 76.6165863,52.3148024 74.2760317,54.2864145 C70.6865357,57.3053808 65.8985818,58.2828882 61.4688513,58.2808136 C60.2216389,58.2870376 59.0003597,58.2071634 57.8551511,58.0788807 C62.5207005,53.4717673 65.4148418,47.0738825 65.4148418,39.9979317 L65.4169165,39.9979317 C65.4148418,25.9632482 54.0374433,14.5893075 40.0027598,14.5875786 C36.363818,14.5875786 32.9060626,15.3583123 29.7767939,16.7365736 C29.3829555,16.4665229 28.9808186,16.2037335 28.5572436,15.959616 C26.80347,14.9734641 23.1482767,13.5319259 18.4989788,13.5184406 C15.1328539,13.4880124 11.2757277,14.3413864 7.49812987,16.7071827 C14.7566501,6.59497694 26.6070695,1.2284415e-15 40.0037971,1.2284415e-15 Z" id="Combined-Shape" fill="#52636C" fill-rule="nonzero"></path>
    </g>
</svg>