<?xml version="1.0" encoding="UTF-8" standalone="no"?>
<svg width="95px" height="24px" viewBox="0 0 190 48" version="1.1" xmlns="http://www.w3.org/2000/svg" xmlns:xlink="http://www.w3.org/1999/xlink">
    <!-- Generator: Sketch 50.2 (55047) - http://www.bohemiancoding.com/sketch -->
    <title>Branding/Logo - Text</title>
    <desc>Created with Sketch.</desc>
    <defs></defs>
    <g id="Screens-Desktop" stroke="none" stroke-width="1" fill="none" fill-rule="evenodd">
        <g id="Desktop-HD" transform="translate(-62.000000, -46.000000)">
            <g id="Branding/Logo---Text" transform="translate(62.000000, 46.000000)">
                <path d="M22.6507778,12.5734326 L31.4218889,26.6720372 L31.4185556,26.6720372 L33.0941111,29.3678512 C33.0941111,29.3678512 34.0785556,31.0858047 36.3918889,31.0858047 C37.073,31.0858047 37.6763333,30.8971535 38.1896667,30.5924093 C38.1896667,30.5924093 40.003,33.2536186 40.4052222,33.8988279 L46.2752222,30.2977116 L27.8652222,-0.000334883721 L12.753,9.26813023 C13.6396667,8.88747907 14.6418889,8.65529302 15.7674444,8.65529302 C20.3207778,8.65529302 22.6507778,12.5734326 22.6507778,12.5734326" id="Fill-4" fill="#EA6D67"></path>
                <path d="M21.7176667,18.8628837 L20.6998889,17.2264186 L20.7043333,17.2253023 L19.0287778,14.5294884 C19.0287778,14.5294884 18.0432222,12.8115349 15.7298889,12.8115349 C15.0476667,12.8115349 14.4454444,13.0013023 13.931,13.3060465 C13.931,13.3060465 11.9587778,10.4059535 11.6721111,9.9304186 L-0.000111111111,17.0891163 L10.7676667,34.8122791 L20.5498889,18.8628837 L21.7176667,18.8628837 Z" id="Fill-1" fill="#AACA63"></path>
                <path d="M29.4704444,31.3234605 L23.5682222,21.8350884 L15.5471111,34.9122977 L10.8315556,34.9122977 L18.4093333,47.3878326 L38.9304444,34.801786 C38.156,35.0786233 37.2982222,35.2416 36.3548889,35.2416 C31.8004444,35.2416 29.4704444,31.3234605 29.4704444,31.3234605" id="Fill-6" fill="#86CEE9"></path>
                <path d="M56.6297778,31.6940651 C56.6297778,32.8148093 57.4008889,33.2233674 58.4964444,33.2233674 C59.1831111,33.2233674 59.7831111,33.0749023 60.4042222,32.8371349 L60.8764444,34.129786 C60.2753333,34.4523907 59.3531111,34.7124837 58.1953333,34.7124837 C56.222,34.7124837 54.8475556,33.5482047 54.8475556,31.5869023 L54.8475556,19.969786 L51.3753333,19.969786 L51.3753333,18.5476465 L56.6297778,18.5476465 L56.6297778,31.6940651 Z" id="Fill-8" fill="#FEFEFE"></path>
                <path d="M69.9587778,31.7377116 L69.9587778,28.8063628 L68.3287778,28.8063628 C65.8176667,28.8063628 64.9176667,29.7339907 64.9176667,31.1996651 C64.9176667,32.6218047 65.6254444,33.3540837 67.1054444,33.3540837 C68.221,33.3540837 69.2932222,32.771386 69.9587778,31.7377116 Z M71.7598889,32.0167814 C71.7598889,32.9220837 72.061,33.2692465 72.6821111,33.4601302 L72.2532222,34.7315721 C71.2887778,34.6032 70.5154444,34.1298977 70.1943333,33.1163163 C69.3787778,34.1734326 68.1132222,34.7125953 66.6532222,34.7125953 C64.3798889,34.7125953 63.0087778,33.3317581 63.0087778,31.2197581 C63.0087778,28.8934326 64.8743333,27.5784558 68.3065556,27.5784558 L69.9587778,27.5784558 L69.9587778,26.6296186 C69.9587778,24.9920372 68.9498889,24.3892465 67.2776667,24.3892465 C66.5265556,24.3892465 65.4965556,24.5388279 64.3365556,24.9485023 L63.8676667,23.6123163 C65.2387778,23.0954791 66.4398889,22.8789209 67.5343333,22.8789209 C70.3454444,22.8789209 71.7598889,24.3021767 71.7598889,26.5436651 L71.7598889,32.0167814 Z" id="Fill-10" fill="#FEFEFE"></path>
                <path d="M86.5332222,26.0260465 L86.5332222,34.4740465 L84.8832222,34.4740465 L84.8832222,26.3285581 C84.8832222,24.884093 84.8165556,24.2813023 84.0032222,24.2813023 C83.3376667,24.2813023 82.651,24.6898605 82.0298889,25.6610233 L82.0298889,34.4740465 L80.3543333,34.4740465 L80.3543333,26.3285581 C80.3543333,24.884093 80.291,24.2813023 79.4754444,24.2813023 C78.7676667,24.2813023 78.1254444,24.6898605 77.5032222,25.6610233 L77.5032222,34.4740465 L75.851,34.4740465 L75.851,23.1393488 L77.2454444,23.1393488 L77.3521111,24.4532093 C77.9743333,23.5691163 78.6821111,22.8792558 79.8187778,22.8792558 C80.6787778,22.8792558 81.5132222,23.2253023 81.8565556,24.3884651 C82.481,23.5043721 83.1876667,22.8792558 84.3454444,22.8792558 C85.4176667,22.8792558 86.5332222,23.4195349 86.5332222,26.0260465" id="Fill-12" fill="#FEFEFE"></path>
                <path d="M97.4467778,28.7851535 C97.4467778,25.811386 96.5234444,24.323386 94.7645556,24.323386 C93.4978889,24.323386 92.5334444,25.2498977 91.9323333,26.1563163 L91.9323333,31.8024558 C92.5334444,32.7088744 93.4556667,33.2692465 94.5067778,33.2692465 C96.3956667,33.2692465 97.4467778,31.8236651 97.4467778,28.7851535 Z M91.9323333,24.6035721 C92.7478889,23.5051535 93.8634444,22.8789209 95.1512222,22.8789209 C98.1745556,22.8789209 99.399,25.2286884 99.399,28.7851535 C99.399,32.2333395 97.8323333,34.7125953 94.9145556,34.7125953 C93.6078889,34.7125953 92.5978889,34.2805953 91.8467778,33.2882233 L91.719,34.4748279 L90.1523333,34.4748279 L90.1523333,18.5477581 L91.9323333,18.3323163 L91.9323333,24.6035721 Z" id="Fill-14" fill="#FEFEFE"></path>
                <path d="M103.909556,28.8063628 C103.909556,31.7589209 104.855111,33.2692465 106.634,33.2692465 C107.921778,33.2692465 108.822889,32.4052465 109.425111,31.4798512 L109.425111,25.7890605 C108.822889,24.8837581 107.901778,24.323386 106.849556,24.323386 C104.961778,24.323386 103.909556,25.811386 103.909556,28.8063628 Z M111.202889,34.4748279 L109.638444,34.4748279 L109.466222,32.9879442 C108.630667,34.1734326 107.515111,34.7125953 106.269556,34.7125953 C103.309556,34.7125953 101.958444,32.3405023 101.958444,28.8286884 C101.958444,25.4017116 103.609556,22.8789209 106.398444,22.8789209 C107.686222,22.8789209 108.672889,23.3533395 109.425111,24.2374326 L109.425111,18.3323163 L111.202889,18.5477581 L111.202889,34.4748279 Z" id="Fill-16" fill="#FEFEFE"></path>
                <path d="M120.729222,31.7377116 L120.729222,28.8063628 L119.098111,28.8063628 C116.589222,28.8063628 115.689222,29.7339907 115.689222,31.1996651 C115.689222,32.6218047 116.395889,33.3540837 117.875889,33.3540837 C118.992556,33.3540837 120.063667,32.771386 120.729222,31.7377116 Z M122.531444,32.0167814 C122.531444,32.9220837 122.832556,33.2692465 123.453667,33.4601302 L123.024778,34.7315721 C122.058111,34.6032 121.287,34.1298977 120.964778,33.1163163 C120.150333,34.1734326 118.883667,34.7125953 117.424778,34.7125953 C115.150333,34.7125953 113.779222,33.3317581 113.779222,31.2197581 C113.779222,28.8934326 115.644778,27.5784558 119.077,27.5784558 L120.729222,27.5784558 L120.729222,26.6296186 C120.729222,24.9920372 119.721444,24.3892465 118.049222,24.3892465 C117.297,24.3892465 116.265889,24.5388279 115.109222,24.9485023 L114.638111,23.6123163 C116.010333,23.0954791 117.211444,22.8789209 118.304778,22.8789209 C121.115889,22.8789209 122.531444,24.3021767 122.531444,26.5436651 L122.531444,32.0167814 Z" id="Fill-18" fill="#FEFEFE"></path>
                <path d="M133.024111,20.4544744 C131.970778,20.4544744 131.443,20.9556837 131.294111,22.0451721 L131.153,23.0453581 L133.823,23.0453581 L133.190778,25.2165209 L130.849667,25.2165209 L129.709667,33.3709395 C129.207444,36.9798698 127.355222,38.1999628 124.664111,39.2079628 L123.893,36.9888 C125.497444,36.3491721 126.401889,35.6448 126.704111,33.4736372 L127.855222,25.2165209 L126.088556,25.2165209 L126.383,23.0464744 L128.156333,23.0464744 L128.320778,21.8665674 C128.607444,19.736707 130.150778,18.1683349 132.797444,18.1683349 C134.094111,18.1683349 135.056333,18.5623814 135.843,19.0792186 L134.777444,20.9434047 C134.164111,20.5504744 133.519667,20.4544744 133.024111,20.4544744 Z" id="Fill-20" fill="#FEFEFE"></path>
                <path d="M136.461556,30.1990326 C136.461556,31.8265674 137.053778,32.5298233 138.224889,32.5298233 C140.637111,32.5298233 141.154889,29.1720558 141.164889,27.3212651 C141.176,25.6937302 140.572667,24.9915907 139.403778,24.9915907 C136.992667,24.9915907 136.461556,28.3493581 136.461556,30.1990326 M139.601556,22.7065674 C142.582667,22.7065674 144.266,24.5674047 144.258222,27.536707 C144.247111,30.5897302 142.740444,34.8148465 138.028222,34.8148465 C135.056,34.8148465 133.370444,32.9830326 133.370444,29.984707 C133.370444,26.8881488 134.899333,22.7065674 139.601556,22.7065674" id="Fill-22" fill="#FEFEFE"></path>
                <path d="M154.163444,22.9077209 L153.302333,25.8625116 C152.960111,25.7665116 152.702333,25.724093 152.347889,25.724093 C150.930111,25.724093 150.103444,27.0725581 149.436778,29.0037209 L148.665667,34.4746047 L145.671222,34.4746047 L147.257889,23.0461395 L149.853444,23.0461395 L149.793444,25.2385116 C150.592333,23.6165581 151.824556,22.735814 153.026778,22.735814 C153.464556,22.735814 153.811222,22.8005581 154.163444,22.9077209" id="Fill-24" fill="#FEFEFE"></path>
                <path d="M157.109333,30.015293 C157.109333,31.647293 157.760444,32.1808744 158.594889,32.1808744 C159.534889,32.1808744 160.327111,31.455293 161.036,30.4629209 L161.847111,25.1739907 C161.354889,24.9853395 160.994889,24.9194791 160.423778,24.9194791 C157.994889,24.9194791 157.109333,27.8061767 157.109333,30.015293 M164.991556,23.859014 L163.546,33.7481302 C162.979333,37.6863628 161.116,39.2424558 157.749333,39.2424558 C156.356,39.2424558 154.756,38.7691535 153.562667,38.019014 L154.596,35.9639442 C155.564889,36.5042233 156.654889,36.8681302 157.681556,36.8681302 C158.991556,36.8681302 160.249333,36.4763163 160.584889,34.1120372 L160.754889,32.9243163 C159.979333,33.8307349 158.924889,34.4748279 157.714889,34.4748279 C155.272667,34.4748279 153.984889,32.7044093 153.984889,30.0755721 C153.984889,26.8539907 155.709333,22.7058977 160.472667,22.7058977 C161.946,22.7058977 163.448222,23.0240372 164.991556,23.859014" id="Fill-26" fill="#FEFEFE"></path>
                <path d="M173.360444,25.9432186 C173.360444,25.4152186 173.089333,24.8079628 172.109333,24.8079628 C170.341556,24.8079628 169.536,26.6230326 169.237111,28.3700093 C172.181556,28.1154977 173.360444,27.1443349 173.360444,25.9432186 M169.100444,30.2922419 C169.171556,31.9543814 170.024889,32.5147535 171.216,32.5147535 C172.217111,32.5147535 173.100444,32.1698233 174.149333,31.4598698 L175.269333,33.312893 C174.027111,34.2170791 172.554889,34.8142884 170.850444,34.8142884 C167.659333,34.8142884 166.053778,32.9266605 166.053778,30.0299163 C166.053778,26.916614 167.689333,22.7060093 172.353778,22.7060093 C175.029333,22.7060093 176.412667,24.1058233 176.412667,25.7869395 C176.412667,28.9884279 172.757111,29.9305674 169.100444,30.2922419" id="Fill-28" fill="#FEFEFE"></path>
            </g>
        </g>
    </g>
</svg>
