<?xml version="1.0" encoding="utf-8"?>
<!-- Generator: Adobe Illustrator 16.0.0, SVG Export Plug-In . SVG Version: 6.00 Build 0)  -->
<!DOCTYPE svg PUBLIC "-//W3C//DTD SVG 1.1//EN" "http://www.w3.org/Graphics/SVG/1.1/DTD/svg11.dtd">
<svg version="1.1" xmlns="http://www.w3.org/2000/svg" xmlns:xlink="http://www.w3.org/1999/xlink" x="0px" y="0px"
	 enable-background="new 0 0 841.889 595.28"
	 xml:space="preserve">
	<g>
		<g>
			<path fill="#A9D860" d="M234.99,267.191l-2.85-4.557l0.014-0.002l-4.691-7.505c0,0-2.748-4.784-9.223-4.784
				c-1.906,0-3.592,0.529-5.031,1.379c0,0-5.518-8.072-6.314-9.397l-32.648,19.931l30.117,49.336l27.357-44.4H234.99z"/>
			<path fill="#EB6D67" d="M237.6,249.683l24.529,39.248l-0.012,0.001l4.691,7.506c0,0,2.748,4.784,9.223,4.784
				c1.906,0,3.59-0.53,5.029-1.378c0,0,5.066,7.41,6.195,9.202l16.416-10.021l-51.49-84.346l-42.266,25.802
				c2.475-1.059,5.281-1.707,8.43-1.707C231.084,238.774,237.6,249.683,237.6,249.683z"/>
			<path fill="#85CFEA" d="M256.67,301.883l-16.508-26.416l-22.434,36.407l-13.191,0.001l21.199,34.726l57.395-35.036
				c-2.168,0.77-4.566,1.227-7.205,1.227C263.186,312.791,256.67,301.883,256.67,301.883z"/>
		</g>
		<g>
			<path fill="#FFFFFF" d="M332.631,302.914c0,3.12,2.16,4.26,5.221,4.26c1.92,0,3.6-0.42,5.338-1.08l1.32,3.6
				c-1.68,0.9-4.26,1.621-7.5,1.621c-5.52,0-9.359-3.24-9.359-8.7v-32.339h-9.719v-3.96h14.699V302.914z"/>
			<path fill="#FFFFFF" d="M374.949,303.814c0,2.52,0.84,3.479,2.58,4.02l-1.199,3.539c-2.701-0.359-4.861-1.68-5.76-4.499
				c-2.281,2.94-5.82,4.44-9.9,4.44c-6.359,0-10.199-3.84-10.199-9.721c0-6.479,5.219-10.139,14.818-10.139h4.621v-2.64
				c0-4.56-2.82-6.24-7.5-6.24c-2.1,0-4.98,0.42-8.221,1.56l-1.318-3.72c3.84-1.44,7.199-2.04,10.26-2.04
				c7.859,0,11.818,3.96,11.818,10.2V303.814z M369.91,303.034v-8.16h-4.561c-7.02,0-9.539,2.58-9.539,6.66
				c0,3.96,1.98,5.999,6.119,5.999C365.051,307.533,368.049,305.914,369.91,303.034z"/>
			<path fill="#FFFFFF" d="M416.27,287.135v23.52h-4.619v-22.68c0-4.02-0.182-5.7-2.461-5.7c-1.859,0-3.779,1.14-5.52,3.84v24.54
				h-4.68v-22.68c0-4.02-0.18-5.7-2.461-5.7c-1.979,0-3.779,1.14-5.52,3.84v24.54h-4.619v-31.559h3.9l0.299,3.66
				c1.74-2.46,3.721-4.38,6.9-4.38c2.4,0,4.74,0.96,5.699,4.2c1.74-2.459,3.721-4.2,6.961-4.2
				C413.148,278.375,416.27,279.875,416.27,287.135z"/>
			<path fill="#FFFFFF" d="M431.369,283.175c2.279-3.06,5.4-4.8,9-4.8c8.459,0,11.879,6.54,11.879,16.439
				c0,9.6-4.379,16.5-12.539,16.5c-3.66,0-6.48-1.201-8.58-3.961l-0.359,3.301h-4.381v-44.339l4.98-0.6V283.175z M446.789,294.814
				c0-8.28-2.58-12.419-7.5-12.419c-3.541,0-6.24,2.58-7.92,5.1v15.72c1.68,2.52,4.26,4.079,7.199,4.079
				C443.85,307.294,446.789,303.273,446.789,294.814z"/>
			<path fill="#FFFFFF" d="M485.268,310.654h-4.379l-0.48-4.141c-2.34,3.301-5.459,4.801-8.939,4.801
				c-8.279,0-12.059-6.601-12.059-16.38c0-9.54,4.619-16.56,12.418-16.56c3.602,0,6.361,1.32,8.461,3.78v-16.439l4.979,0.6V310.654z
				 M464.869,294.875c0,8.219,2.641,12.419,7.619,12.419c3.6,0,6.121-2.399,7.801-4.979v-15.84c-1.68-2.52-4.26-4.08-7.199-4.08
				C467.809,282.395,464.869,286.535,464.869,294.875z"/>
			<path fill="#FFFFFF" d="M516.947,303.814c0,2.52,0.84,3.479,2.58,4.02l-1.199,3.539c-2.701-0.359-4.861-1.68-5.76-4.499
				c-2.281,2.94-5.82,4.44-9.9,4.44c-6.359,0-10.199-3.84-10.199-9.721c0-6.479,5.219-10.139,14.818-10.139h4.621v-2.64
				c0-4.56-2.82-6.24-7.5-6.24c-2.1,0-4.98,0.42-8.221,1.56l-1.318-3.72c3.84-1.44,7.199-2.04,10.26-2.04
				c7.859,0,11.818,3.96,11.818,10.2V303.814z M511.908,303.034v-8.16h-4.561c-7.02,0-9.539,2.58-9.539,6.66
				c0,3.96,1.98,5.999,6.119,5.999C507.049,307.533,510.047,305.914,511.908,303.034z"/>
			<path fill="#FFFFFF" d="M546.295,271.624c-2.945,0-4.42,1.397-4.84,4.429l-0.391,2.785h7.467l-1.766,6.042h-6.551l-3.191,22.705
				c-1.402,10.043-6.584,13.443-14.113,16.245l-2.154-6.177c4.49-1.779,7.018-3.741,7.863-9.785l3.217-22.987h-4.941l0.826-6.042
				h4.961l0.459-3.283c0.805-5.931,5.121-10.295,12.521-10.295c3.625,0,6.316,1.095,8.516,2.535l-2.979,5.188
				C549.482,271.893,547.682,271.624,546.295,271.624L546.295,271.624z"/>
			<path fill="#FFFFFF" d="M564.689,277.891c8.342,0,13.051,5.181,13.023,13.447c-0.029,8.498-4.24,20.262-17.424,20.262
				c-8.312,0-13.025-5.097-13.025-13.447c0-8.621,4.275-20.262,17.428-20.262H564.689z M555.91,298.752
				c0,4.529,1.658,6.484,4.928,6.484c6.748,0,8.199-9.344,8.229-14.498c0.027-4.529-1.658-6.483-4.924-6.483
				C557.395,284.255,555.91,293.599,555.91,298.752z"/>
			<path fill="#FFFFFF" d="M605.42,278.452l-2.412,8.227c-0.957-0.268-1.674-0.385-2.666-0.385c-3.965,0-6.281,3.754-8.146,9.132
				l-2.152,15.229h-8.375l4.439-31.817h7.256l-0.164,6.105c2.232-4.517,5.678-6.967,9.041-6.967
				C603.465,277.976,604.432,278.156,605.42,278.452z"/>
			<path fill="#FFFFFF" d="M635.701,281.1l-4.041,27.533c-1.584,10.963-6.793,15.292-16.213,15.292
				c-3.895,0-8.373-1.313-11.713-3.399l2.893-5.729c2.713,1.508,5.758,2.52,8.633,2.52c3.662,0,7.18-1.09,8.119-7.669l0.473-3.306
				c-2.164,2.523-5.113,4.312-8.502,4.312c-6.826,0-10.43-4.935-10.43-12.248c0-8.967,4.824-20.516,18.143-20.516
				C627.182,277.891,631.387,278.778,635.701,281.1z M613.658,298.241c0,4.541,1.82,6.025,4.154,6.025
				c2.631,0,4.85-2.018,6.828-4.779l2.27-14.724c-1.375-0.525-2.385-0.709-3.982-0.709
				C616.135,284.054,613.658,292.089,613.658,298.241z"/>
			<path fill="#FFFFFF" d="M647.193,299.011c0.201,4.624,2.586,6.187,5.92,6.187c2.799,0,5.27-0.957,8.205-2.939l3.133,5.162
				c-3.477,2.518-7.594,4.18-12.359,4.18c-8.928,0-13.418-5.256-13.418-13.32c0-8.668,4.572-20.389,17.619-20.389
				c7.484,0,11.35,3.897,11.35,8.578C667.643,295.38,657.422,298.004,647.193,299.011z M659.109,286.903
				c0-1.472-0.76-3.161-3.5-3.161c-4.943,0-7.201,5.052-8.031,9.917C655.812,292.952,659.109,290.247,659.109,286.903z"/>
		</g>
</g>
<g id="dark">
</g>
</svg>
