<?xml version="1.0" standalone="no"?>
<!DOCTYPE svg PUBLIC "-//W3C//DTD SVG 20010904//EN"
 "http://www.w3.org/TR/2001/REC-SVG-20010904/DTD/svg10.dtd">
<svg version="1.0" xmlns="http://www.w3.org/2000/svg"
 width="260.000000pt" height="260.000000pt" viewBox="0 0 260.000000 260.000000"
 preserveAspectRatio="xMidYMid meet">
<metadata>
Created by potrace 1.11, written by Peter Selinger 2001-2013
</metadata>
<g transform="translate(0.000000,260.000000) scale(0.100000,-0.100000)"
fill="#000000" stroke="none">
<path d="M0 1300 l0 -1300 1300 0 1300 0 0 1300 0 1300 -1300 0 -1300 0 0
-1300z m2077 479 c270 -442 492 -809 492 -814 1 -9 -84 -64 -261 -168 l-47
-28 -57 86 c-49 73 -61 85 -78 80 -85 -26 -165 -13 -222 37 -19 17 -163 236
-331 506 -189 302 -315 493 -344 522 -95 95 -194 134 -330 128 -81 -3 -88 -2
-69 11 108 72 737 450 745 447 5 -1 231 -364 502 -807z m-1350 185 c47 -71 60
-84 77 -80 94 27 169 13 227 -42 21 -20 69 -89 108 -152 l70 -115 -32 -3 c-31
-3 -43 -21 -296 -433 -145 -236 -265 -428 -267 -427 -7 8 -576 943 -577 950
-2 8 610 387 625 388 5 0 34 -39 65 -86z m774 -849 c187 -300 235 -357 344
-409 65 -31 154 -44 235 -35 30 3 56 5 57 4 2 -1 -243 -151 -543 -334 -300
-183 -547 -332 -549 -330 -2 2 -94 153 -204 334 l-202 330 127 5 127 5 216
352 c119 194 217 353 218 353 1 0 79 -124 174 -275z"/>
</g>
</svg>
